<?xml version="1.0" encoding="UTF-8" ?>
<!DOCTYPE svg PUBLIC "-//W3C//DTD SVG 1.1//EN" "http://www.w3.org/Graphics/SVG/1.1/DTD/svg11.dtd">
<svg width="1121pt" height="512pt" viewBox="0 0 1121 512" version="1.1" xmlns="http://www.w3.org/2000/svg">
<g id="#ffffffff">
<path fill="#ffffff" opacity="1.00" d=" M 0.00 0.00 L 1121.00 0.00 L 1121.00 512.00 L 0.00 512.00 L 0.00 0.00 M 616.50 314.50 C 678.57 314.52 740.64 314.47 802.72 314.52 C 802.90 269.02 802.48 223.50 803.00 178.00 C 803.00 120.84 803.00 63.67 803.00 6.50 C 740.84 6.49 678.68 6.52 616.51 6.49 C 616.48 109.16 616.51 211.83 616.50 314.50 M 806.40 191.88 C 824.61 192.16 842.82 191.92 861.03 192.00 C 945.35 192.00 1029.68 192.00 1114.00 192.00 C 1114.00 130.17 1114.00 68.34 1114.00 6.50 C 1011.51 6.48 909.03 6.54 806.54 6.48 C 806.38 68.28 806.65 130.08 806.40 191.88 M 561.87 25.52 C 554.03 29.01 546.08 32.84 539.95 39.00 C 539.90 40.68 539.90 42.35 539.95 44.02 C 556.21 33.23 575.01 27.17 593.46 21.35 C 595.57 19.09 597.05 16.31 598.13 13.43 C 585.74 16.46 573.60 20.51 561.87 25.52 M 586.14 33.12 C 572.22 38.15 558.12 43.02 545.10 50.15 C 542.50 51.88 538.57 53.30 538.70 57.05 C 538.54 61.10 537.98 65.51 539.67 69.31 C 546.94 73.53 554.59 77.43 560.79 83.22 C 562.51 84.70 564.09 87.30 562.34 89.40 C 559.80 92.31 555.70 92.93 552.10 93.59 C 542.11 94.85 532.02 94.36 521.98 94.46 C 398.31 94.46 274.63 94.48 150.96 94.45 C 146.89 94.93 144.82 90.85 142.01 89.01 C 140.10 91.70 139.33 95.05 137.79 97.97 C 139.72 100.51 142.40 102.76 143.17 105.96 C 142.63 110.00 139.89 113.31 137.59 116.52 C 133.40 121.26 128.88 126.84 122.18 127.71 C 118.36 128.59 114.65 126.88 110.84 126.93 L 110.61 127.96 C 116.18 133.29 125.57 136.37 132.52 131.68 C 140.77 126.09 146.05 116.69 147.94 107.02 C 148.06 104.99 150.06 103.79 151.95 104.07 C 282.63 104.02 413.32 104.14 544.01 103.99 C 550.79 103.49 558.39 102.52 563.50 97.55 C 568.40 91.72 567.78 82.66 563.73 76.52 C 558.88 69.04 550.47 65.28 543.30 60.48 C 543.29 60.23 543.28 59.73 543.27 59.48 C 546.59 57.22 550.32 55.64 553.99 54.07 C 565.09 49.48 576.50 45.71 587.89 41.93 C 589.04 41.50 590.46 41.18 590.98 39.90 C 592.77 36.73 594.21 33.38 595.73 30.08 C 592.42 30.72 589.33 32.10 586.14 33.12 M 25.28 73.21 C 22.17 76.44 20.15 80.55 18.28 84.57 C 16.64 88.64 15.29 93.24 16.56 97.60 C 17.72 101.59 21.84 104.45 25.99 104.05 C 30.65 104.05 36.06 102.82 38.72 98.61 C 40.27 95.35 40.26 91.59 40.40 88.05 C 40.58 81.79 36.68 75.55 30.88 73.14 C 29.14 72.68 26.77 71.75 25.28 73.21 M 82.63 74.67 C 79.34 78.73 77.18 83.73 76.27 88.87 C 75.40 93.22 77.59 98.51 82.12 99.79 C 85.76 100.88 89.13 98.80 92.14 97.03 C 91.23 102.51 87.59 106.98 83.64 110.66 C 79.55 114.43 74.96 117.97 69.49 119.38 C 64.76 120.56 59.87 119.84 55.09 119.50 C 54.79 121.35 56.75 122.16 57.94 123.09 C 61.27 125.18 64.98 127.16 69.03 127.05 C 75.04 127.13 80.58 123.88 84.57 119.58 C 92.33 111.14 97.38 99.59 95.94 87.97 C 95.24 83.13 94.27 77.87 90.89 74.12 C 88.69 71.64 84.54 72.06 82.63 74.67 M 927.74 195.51 C 927.81 236.41 927.64 277.31 927.83 318.21 C 887.38 318.42 846.93 318.21 806.48 318.32 C 806.43 380.15 806.66 441.99 806.37 503.81 C 809.90 504.17 813.46 503.94 817.01 504.00 C 916.01 504.00 1015.00 504.00 1114.00 504.00 C 1114.00 401.17 1114.00 298.34 1114.00 195.50 C 1051.91 195.51 989.83 195.49 927.74 195.51 M 101.89 229.79 C 104.24 231.33 106.58 232.88 108.93 234.41 C 110.53 232.18 112.13 229.95 113.75 227.74 C 111.47 225.90 109.06 224.23 106.78 222.39 C 104.91 224.69 103.50 227.30 101.89 229.79 M 387.89 227.43 C 386.42 229.81 384.92 232.17 383.26 234.42 C 385.55 236.37 388.16 237.92 390.63 239.63 C 391.74 237.07 393.47 234.87 395.14 232.65 C 392.74 230.89 390.40 229.04 387.89 227.43 M 110.43 239.41 C 108.41 237.80 106.20 236.45 103.99 235.13 C 102.38 237.59 100.77 240.06 99.01 242.42 C 101.23 244.20 103.71 245.59 106.01 247.26 C 107.57 245.65 108.80 243.76 110.09 241.93 C 112.37 243.36 114.66 244.78 116.94 246.22 C 118.55 243.90 120.05 241.50 121.53 239.10 C 119.08 237.49 116.61 235.92 114.12 234.37 C 112.99 236.12 111.93 237.94 110.43 239.41 M 265.22 240.17 C 262.44 242.29 260.94 245.65 259.82 248.87 C 260.99 249.53 262.16 250.21 263.31 250.92 C 258.33 255.20 253.25 262.62 257.40 269.11 C 254.28 270.98 250.52 270.94 247.01 271.00 C 210.69 271.00 174.37 271.01 138.05 271.00 C 135.88 270.97 133.35 270.98 131.81 269.20 C 129.77 266.87 130.95 263.17 128.76 260.97 C 127.28 262.93 126.55 265.29 125.31 267.39 C 123.47 270.35 118.96 270.76 116.35 268.61 C 114.62 266.65 115.32 263.77 114.51 261.45 C 114.25 261.45 113.73 261.46 113.47 261.46 C 111.33 263.96 110.26 267.65 106.92 268.94 C 104.19 270.01 100.59 270.69 98.11 268.71 C 95.62 266.79 98.38 262.54 95.48 261.06 C 93.43 264.30 91.76 268.25 87.95 269.77 C 81.25 272.50 73.72 269.61 66.92 271.94 C 61.40 273.77 56.55 277.66 53.52 282.62 C 51.82 285.45 50.89 289.89 54.16 292.01 C 59.37 295.40 66.00 294.46 71.65 296.55 C 71.97 296.85 72.61 297.44 72.93 297.74 C 71.21 299.17 69.27 300.35 67.14 301.08 C 57.54 304.62 47.08 306.21 36.89 304.94 C 30.58 304.02 23.56 300.93 21.41 294.42 C 19.24 287.35 22.47 280.38 25.05 273.93 C 23.04 273.96 22.19 275.86 21.25 277.30 C 16.88 284.42 15.03 293.29 16.68 301.51 C 18.48 309.31 26.35 313.86 33.84 314.74 C 45.07 315.81 56.72 313.95 66.81 308.81 C 72.01 305.96 77.56 301.44 77.49 294.94 C 77.95 292.28 76.49 289.59 73.91 288.70 C 68.88 286.96 63.39 286.99 58.43 284.99 C 59.64 283.02 61.95 282.27 63.99 281.50 C 70.24 279.65 76.84 281.24 83.21 280.34 C 87.00 279.70 89.91 276.90 92.25 274.05 C 93.43 277.28 96.28 280.29 99.98 280.04 C 104.78 280.28 108.44 276.52 111.08 272.96 C 112.65 276.51 115.60 280.57 120.00 280.04 C 123.51 279.94 125.51 276.66 127.21 274.03 C 128.42 277.27 131.05 280.76 134.89 280.58 C 173.23 280.59 211.57 280.66 249.90 280.55 C 256.75 280.62 260.76 273.94 266.88 272.04 C 272.51 272.64 277.42 276.02 283.06 276.57 C 285.59 276.90 288.12 275.37 288.98 272.97 C 290.63 268.70 290.80 263.57 288.41 259.53 C 284.79 252.78 279.18 247.31 273.02 242.87 C 270.71 241.42 268.12 239.37 265.22 240.17 M 392.00 244.28 C 389.84 242.85 387.64 241.48 385.52 240.01 C 383.73 242.39 382.17 244.95 380.38 247.33 C 382.70 249.16 385.16 250.81 387.80 252.14 C 388.93 250.34 390.16 248.60 391.40 246.87 C 393.80 248.25 396.03 249.92 398.59 251.00 C 399.95 248.61 401.46 246.31 402.94 244.00 C 400.48 242.44 398.02 240.88 395.60 239.26 C 394.46 240.98 393.29 242.67 392.00 244.28 M 334.45 250.40 C 330.62 254.27 328.50 259.62 327.35 264.87 C 326.31 269.31 328.35 274.93 333.05 276.26 C 336.63 277.33 340.08 275.42 343.00 273.56 C 341.54 282.30 333.95 288.33 327.05 293.05 C 320.82 297.35 313.03 296.64 305.90 296.06 C 306.20 297.26 306.86 298.32 307.97 298.93 C 311.79 301.55 316.21 303.90 320.99 303.52 C 327.05 303.28 332.43 299.71 336.33 295.27 C 343.25 287.26 347.96 276.78 347.07 266.02 C 346.61 260.93 345.61 255.57 342.54 251.35 C 340.75 248.75 336.72 248.02 334.45 250.40 M 577.73 259.79 C 579.88 262.51 582.56 265.23 582.94 268.85 C 578.49 270.52 573.71 271.04 568.99 271.00 C 513.99 270.99 458.99 271.02 403.99 270.99 C 399.91 271.45 397.06 268.08 394.72 265.28 C 392.79 268.18 391.73 271.52 390.31 274.67 C 392.30 277.22 395.31 279.58 395.67 282.98 C 394.88 286.52 392.65 289.53 390.58 292.43 C 386.54 297.07 382.30 302.48 376.01 303.95 C 371.63 305.29 367.26 303.23 362.88 303.61 C 364.00 306.62 367.55 307.48 370.12 308.92 C 375.74 311.85 382.79 310.58 387.44 306.45 C 393.48 301.14 397.95 293.92 399.82 286.09 C 400.23 283.76 400.75 280.19 404.00 280.62 C 458.67 280.58 513.34 280.61 568.02 280.61 C 572.19 280.58 576.66 280.76 580.41 278.60 C 584.33 276.64 585.54 272.07 586.62 268.18 C 587.67 262.44 586.53 256.08 583.01 251.35 C 580.75 253.82 579.38 256.91 577.73 259.79 M 583.02 294.21 C 580.87 292.76 578.65 291.43 576.49 290.00 C 574.80 292.28 573.28 294.67 571.77 297.07 C 574.19 298.69 576.66 300.24 579.11 301.83 C 580.29 300.22 581.40 298.55 582.40 296.83 C 584.82 298.11 587.00 299.83 589.51 300.98 C 590.98 298.40 592.87 296.06 594.18 293.38 C 591.76 291.96 589.42 290.41 587.09 288.86 C 585.82 290.71 584.60 292.61 583.02 294.21 M 584.27 301.84 C 582.76 304.13 580.97 306.24 579.62 308.64 C 582.07 310.18 584.38 311.94 586.76 313.60 C 588.26 311.13 590.12 308.86 591.35 306.23 C 588.92 304.87 586.70 303.18 584.27 301.84 M 616.40 318.13 C 616.63 339.25 616.42 360.38 616.50 381.50 C 678.62 381.57 740.74 381.37 802.86 381.60 C 803.17 360.42 802.95 339.22 802.96 318.03 C 740.78 318.04 678.58 317.85 616.40 318.13 M 616.42 443.90 C 678.61 444.14 740.81 443.93 803.00 444.00 C 803.00 424.33 803.00 404.67 803.00 385.00 C 740.85 384.98 678.69 385.05 616.54 384.96 C 616.38 404.61 616.64 424.25 616.42 443.90 M 96.87 396.89 C 97.70 410.25 98.29 423.63 98.30 437.02 C 98.40 444.03 98.54 451.52 102.20 457.74 C 104.54 461.87 109.26 464.25 113.96 464.04 C 250.64 464.09 387.31 464.04 523.98 464.06 C 530.13 464.17 536.32 463.47 542.19 461.54 C 553.82 458.04 563.49 450.18 574.82 445.96 C 578.57 444.31 582.94 445.84 586.63 444.48 C 589.55 440.59 591.52 436.02 593.78 431.71 C 591.94 429.99 589.27 430.48 587.00 430.07 C 571.35 428.36 557.04 421.35 542.06 417.04 C 537.61 415.40 532.89 417.59 529.77 420.77 C 526.33 424.26 523.29 428.33 521.69 433.01 C 521.26 434.25 521.08 436.90 523.01 436.90 C 526.81 437.28 527.95 432.32 531.34 431.49 C 535.72 430.17 540.04 432.39 544.12 433.74 C 549.08 435.77 554.26 437.25 559.14 439.47 C 553.73 441.18 548.45 443.32 542.89 444.47 C 534.71 446.13 526.32 445.98 518.02 446.00 C 386.66 446.00 255.30 445.99 123.94 446.01 C 120.88 445.89 117.66 446.40 114.72 445.34 C 111.88 444.14 111.03 440.79 111.01 437.99 C 110.78 421.28 111.29 404.55 110.75 387.85 C 105.56 389.80 101.54 393.97 96.87 396.89 M 33.11 434.49 C 38.56 439.22 45.21 443.21 48.48 449.91 C 50.18 453.88 46.99 457.71 44.28 460.31 C 36.09 467.66 25.99 472.48 15.87 476.58 C 14.05 477.41 11.94 478.19 10.99 480.10 C 10.92 482.23 13.37 482.59 14.93 483.14 C 21.18 484.56 27.62 484.99 34.02 485.06 C 36.23 484.97 38.82 485.22 40.51 483.46 C 53.39 471.33 58.80 451.59 53.48 434.67 C 51.33 429.14 48.67 422.77 42.93 420.18 C 39.30 424.70 36.58 429.85 33.11 434.49 M 616.42 503.90 C 678.61 504.14 740.81 503.93 803.00 504.00 C 803.00 485.17 803.00 466.34 803.00 447.50 C 740.84 447.49 678.68 447.52 616.52 447.49 C 616.42 466.29 616.61 485.10 616.42 503.90 M 541.09 476.03 C 543.75 478.80 546.65 481.33 549.34 484.07 C 552.32 482.26 554.39 479.37 556.94 477.07 C 559.32 479.25 561.38 481.79 563.92 483.81 C 566.38 483.11 567.79 480.27 569.82 478.71 C 570.49 477.70 572.48 476.77 571.75 475.36 C 569.34 472.67 566.57 470.33 564.01 467.78 C 561.37 469.97 559.11 472.55 556.68 474.95 C 554.05 472.79 552.09 469.37 549.01 468.07 C 546.22 470.57 543.68 473.33 541.09 476.03 M 548.24 489.12 C 550.48 492.23 553.72 494.39 556.33 497.16 C 559.60 495.04 562.18 492.02 564.74 489.12 C 561.87 486.53 559.30 483.58 556.09 481.40 C 553.53 484.03 550.89 486.58 548.24 489.12 Z" />
<path fill="#ffffff" opacity="1.00" d=" M 82.87 89.25 C 80.18 87.42 81.91 82.68 85.03 82.55 C 88.05 83.03 89.39 86.19 90.13 88.80 C 87.83 89.54 85.14 90.68 82.87 89.25 Z" />
<path fill="#ffffff" opacity="1.00" d=" M 23.60 84.45 C 24.53 82.88 26.64 83.84 28.05 83.95 C 31.21 84.56 34.20 86.59 35.67 89.49 C 36.82 91.59 34.26 92.99 32.59 93.45 C 29.34 94.30 25.54 95.12 22.43 93.45 C 19.78 90.99 22.21 86.98 23.60 84.45 Z" />
<path fill="#ffffff" opacity="1.00" d=" M 264.46 255.66 C 268.77 252.89 272.32 259.49 269.84 262.78 C 267.95 264.59 265.00 263.98 262.90 262.89 C 261.42 262.18 259.09 261.06 260.10 259.02 C 261.06 257.39 262.77 256.39 264.46 255.66 Z" />
<path fill="#ffffff" opacity="1.00" d=" M 275.19 256.80 C 279.69 259.75 284.37 263.50 286.00 268.85 C 281.67 267.69 277.17 266.76 273.15 264.75 C 275.22 262.60 275.22 259.58 275.19 256.80 Z" />
<path fill="#ffffff" opacity="1.00" d=" M 333.53 265.55 C 331.33 263.41 333.03 259.30 335.97 259.01 C 338.99 259.41 340.13 262.61 341.24 265.00 C 338.94 266.27 335.89 267.12 333.53 265.55 Z" />
</g>
<g id="#121212ff">
<path fill="#121212" opacity="1.00" d=" M 616.50 314.50 C 616.51 211.83 616.48 109.16 616.51 6.49 C 678.68 6.52 740.84 6.49 803.00 6.50 C 803.00 63.67 803.00 120.84 803.00 178.00 C 802.48 223.50 802.90 269.02 802.72 314.52 C 740.64 314.47 678.57 314.52 616.50 314.50 Z" />
<path fill="#121212" opacity="1.00" d=" M 806.40 191.88 C 806.65 130.08 806.38 68.28 806.54 6.48 C 909.03 6.54 1011.51 6.48 1114.00 6.50 C 1114.00 68.34 1114.00 130.17 1114.00 192.00 C 1029.68 192.00 945.35 192.00 861.03 192.00 C 842.82 191.92 824.61 192.16 806.40 191.88 Z" />
<path fill="#121212" opacity="1.00" d=" M 561.87 25.52 C 573.60 20.51 585.74 16.46 598.13 13.43 C 597.05 16.31 595.57 19.09 593.46 21.35 C 575.01 27.17 556.21 33.23 539.95 44.02 C 539.90 42.35 539.90 40.68 539.95 39.00 C 546.08 32.84 554.03 29.01 561.87 25.52 Z" />
<path fill="#121212" opacity="1.00" d=" M 586.14 33.12 C 589.33 32.10 592.42 30.72 595.73 30.08 C 594.21 33.38 592.77 36.73 590.98 39.90 C 590.46 41.18 589.04 41.50 587.89 41.93 C 576.50 45.71 565.09 49.48 553.99 54.07 C 550.32 55.64 546.59 57.22 543.27 59.48 C 543.28 59.73 543.29 60.23 543.30 60.48 C 550.47 65.28 558.88 69.04 563.73 76.52 C 567.78 82.66 568.40 91.72 563.50 97.55 C 558.39 102.52 550.79 103.49 544.01 103.99 C 413.32 104.14 282.63 104.02 151.95 104.07 C 150.06 103.79 148.06 104.99 147.94 107.02 C 146.05 116.69 140.77 126.09 132.52 131.68 C 125.57 136.37 116.18 133.29 110.61 127.96 L 110.84 126.93 C 114.65 126.88 118.36 128.59 122.18 127.71 C 128.88 126.84 133.40 121.26 137.59 116.52 C 139.89 113.31 142.63 110.00 143.17 105.96 C 142.40 102.76 139.72 100.51 137.79 97.97 C 139.33 95.05 140.10 91.70 142.01 89.01 C 144.82 90.85 146.89 94.93 150.96 94.45 C 274.63 94.48 398.31 94.46 521.98 94.46 C 532.02 94.36 542.11 94.85 552.10 93.59 C 555.70 92.93 559.80 92.31 562.34 89.40 C 564.09 87.30 562.51 84.70 560.79 83.22 C 554.59 77.43 546.94 73.53 539.67 69.31 C 537.98 65.51 538.54 61.10 538.70 57.05 C 538.57 53.30 542.50 51.88 545.10 50.15 C 558.12 43.02 572.22 38.15 586.14 33.12 Z" />
<path fill="#121212" opacity="1.00" d=" M 25.28 73.21 C 26.77 71.75 29.14 72.68 30.88 73.14 C 36.68 75.55 40.58 81.79 40.40 88.05 C 40.26 91.59 40.27 95.35 38.72 98.61 C 36.06 102.82 30.65 104.05 25.99 104.05 C 21.84 104.45 17.72 101.59 16.56 97.60 C 15.29 93.24 16.64 88.64 18.28 84.57 C 20.15 80.55 22.17 76.44 25.28 73.21 M 23.60 84.45 C 22.21 86.98 19.78 90.99 22.43 93.45 C 25.54 95.12 29.34 94.30 32.59 93.45 C 34.26 92.99 36.82 91.59 35.67 89.49 C 34.20 86.59 31.21 84.56 28.05 83.95 C 26.64 83.84 24.53 82.88 23.60 84.45 Z" />
<path fill="#121212" opacity="1.00" d=" M 82.63 74.67 C 84.54 72.06 88.69 71.64 90.89 74.12 C 94.27 77.87 95.24 83.13 95.94 87.97 C 97.38 99.59 92.33 111.14 84.57 119.58 C 80.58 123.88 75.04 127.13 69.03 127.05 C 64.98 127.16 61.27 125.18 57.94 123.09 C 56.75 122.16 54.79 121.35 55.09 119.50 C 59.87 119.84 64.76 120.56 69.49 119.38 C 74.96 117.97 79.55 114.43 83.64 110.66 C 87.59 106.98 91.23 102.51 92.14 97.03 C 89.13 98.80 85.76 100.88 82.12 99.79 C 77.59 98.51 75.40 93.22 76.27 88.87 C 77.18 83.73 79.34 78.73 82.63 74.67 M 82.87 89.25 C 85.14 90.68 87.83 89.54 90.13 88.80 C 89.39 86.19 88.05 83.03 85.03 82.55 C 81.91 82.68 80.18 87.42 82.87 89.25 Z" />
<path fill="#121212" opacity="1.00" d=" M 927.74 195.51 C 989.83 195.49 1051.91 195.51 1114.00 195.50 C 1114.00 298.34 1114.00 401.17 1114.00 504.00 C 1015.00 504.00 916.01 504.00 817.01 504.00 C 813.46 503.94 809.90 504.17 806.37 503.81 C 806.66 441.99 806.43 380.15 806.48 318.32 C 846.93 318.21 887.38 318.42 927.83 318.21 C 927.64 277.31 927.81 236.41 927.74 195.51 Z" />
<path fill="#121212" opacity="1.00" d=" M 101.89 229.79 C 103.50 227.30 104.91 224.69 106.78 222.39 C 109.06 224.23 111.47 225.90 113.75 227.74 C 112.13 229.95 110.53 232.18 108.93 234.41 C 106.58 232.88 104.24 231.33 101.89 229.79 Z" />
<path fill="#121212" opacity="1.00" d=" M 387.89 227.43 C 390.40 229.04 392.74 230.89 395.14 232.65 C 393.47 234.87 391.74 237.07 390.63 239.63 C 388.16 237.92 385.55 236.37 383.26 234.42 C 384.92 232.17 386.42 229.81 387.89 227.43 Z" />
<path fill="#121212" opacity="1.00" d=" M 110.43 239.41 C 111.93 237.94 112.99 236.12 114.12 234.37 C 116.61 235.92 119.08 237.49 121.53 239.10 C 120.05 241.50 118.55 243.90 116.94 246.22 C 114.66 244.78 112.37 243.36 110.09 241.93 C 108.80 243.76 107.57 245.65 106.01 247.26 C 103.71 245.59 101.23 244.20 99.01 242.42 C 100.77 240.06 102.38 237.59 103.99 235.13 C 106.20 236.45 108.41 237.80 110.43 239.41 Z" />
<path fill="#121212" opacity="1.00" d=" M 265.22 240.17 C 268.12 239.37 270.71 241.42 273.02 242.87 C 279.18 247.31 284.79 252.78 288.41 259.53 C 290.80 263.57 290.63 268.70 288.98 272.97 C 288.12 275.37 285.59 276.90 283.06 276.57 C 277.42 276.02 272.51 272.64 266.88 272.04 C 260.76 273.94 256.75 280.62 249.90 280.55 C 211.57 280.66 173.23 280.59 134.89 280.58 C 131.05 280.76 128.42 277.27 127.21 274.03 C 125.51 276.66 123.51 279.94 120.00 280.04 C 115.60 280.57 112.65 276.51 111.08 272.96 C 108.44 276.52 104.78 280.28 99.98 280.04 C 96.28 280.29 93.43 277.28 92.25 274.05 C 89.91 276.90 87.00 279.70 83.21 280.34 C 76.84 281.24 70.24 279.65 63.99 281.50 C 61.95 282.27 59.64 283.02 58.43 284.99 C 63.39 286.99 68.88 286.96 73.91 288.70 C 76.49 289.59 77.95 292.28 77.49 294.94 C 77.56 301.44 72.01 305.96 66.81 308.81 C 56.72 313.95 45.07 315.81 33.84 314.74 C 26.35 313.86 18.48 309.31 16.68 301.51 C 15.03 293.29 16.88 284.42 21.25 277.30 C 22.19 275.86 23.04 273.96 25.05 273.93 C 22.47 280.38 19.24 287.35 21.41 294.42 C 23.56 300.93 30.58 304.02 36.89 304.94 C 47.08 306.21 57.54 304.62 67.14 301.08 C 69.27 300.35 71.21 299.17 72.93 297.74 C 72.61 297.44 71.97 296.85 71.65 296.55 C 66.00 294.46 59.37 295.40 54.16 292.01 C 50.89 289.89 51.82 285.45 53.52 282.62 C 56.55 277.66 61.40 273.77 66.92 271.94 C 73.72 269.61 81.25 272.50 87.95 269.77 C 91.76 268.25 93.43 264.30 95.48 261.06 C 98.38 262.54 95.62 266.79 98.11 268.71 C 100.59 270.69 104.19 270.01 106.92 268.94 C 110.26 267.65 111.33 263.96 113.47 261.46 C 113.73 261.46 114.25 261.45 114.51 261.45 C 115.32 263.77 114.62 266.65 116.35 268.61 C 118.96 270.76 123.47 270.35 125.31 267.39 C 126.55 265.29 127.28 262.93 128.76 260.97 C 130.95 263.17 129.77 266.87 131.81 269.20 C 133.35 270.98 135.88 270.97 138.05 271.00 C 174.37 271.01 210.69 271.00 247.01 271.00 C 250.52 270.94 254.28 270.98 257.40 269.11 C 253.25 262.62 258.33 255.20 263.31 250.92 C 262.16 250.21 260.99 249.53 259.82 248.87 C 260.94 245.65 262.44 242.29 265.22 240.17 M 264.46 255.66 C 262.77 256.39 261.06 257.39 260.10 259.02 C 259.09 261.06 261.42 262.18 262.90 262.89 C 265.00 263.98 267.95 264.59 269.84 262.78 C 272.32 259.49 268.77 252.89 264.46 255.66 M 275.19 256.80 C 275.22 259.58 275.22 262.60 273.15 264.75 C 277.17 266.76 281.67 267.69 286.00 268.85 C 284.37 263.50 279.69 259.75 275.19 256.80 Z" />
<path fill="#121212" opacity="1.00" d=" M 392.00 244.28 C 393.29 242.67 394.46 240.98 395.60 239.26 C 398.02 240.88 400.48 242.44 402.94 244.00 C 401.46 246.31 399.95 248.61 398.59 251.00 C 396.03 249.92 393.80 248.25 391.40 246.87 C 390.16 248.60 388.93 250.34 387.80 252.14 C 385.16 250.81 382.70 249.16 380.38 247.33 C 382.17 244.95 383.73 242.39 385.52 240.01 C 387.64 241.48 389.84 242.85 392.00 244.28 Z" />
<path fill="#121212" opacity="1.00" d=" M 334.45 250.40 C 336.72 248.02 340.75 248.75 342.54 251.35 C 345.61 255.57 346.61 260.93 347.07 266.02 C 347.96 276.78 343.25 287.26 336.33 295.27 C 332.43 299.71 327.05 303.28 320.99 303.52 C 316.21 303.90 311.79 301.55 307.97 298.93 C 306.86 298.32 306.20 297.26 305.90 296.06 C 313.03 296.64 320.82 297.35 327.05 293.05 C 333.95 288.33 341.54 282.30 343.00 273.56 C 340.08 275.42 336.63 277.33 333.05 276.26 C 328.35 274.93 326.31 269.31 327.35 264.87 C 328.50 259.62 330.62 254.27 334.45 250.40 M 333.53 265.55 C 335.89 267.12 338.94 266.27 341.24 265.00 C 340.13 262.61 338.99 259.41 335.97 259.01 C 333.03 259.30 331.33 263.41 333.53 265.55 Z" />
<path fill="#121212" opacity="1.00" d=" M 577.73 259.79 C 579.38 256.91 580.75 253.82 583.01 251.35 C 586.53 256.08 587.67 262.44 586.62 268.18 C 585.54 272.07 584.33 276.64 580.41 278.60 C 576.66 280.76 572.19 280.58 568.02 280.61 C 513.34 280.61 458.67 280.58 404.00 280.62 C 400.75 280.19 400.23 283.76 399.82 286.09 C 397.95 293.92 393.48 301.14 387.44 306.45 C 382.79 310.58 375.74 311.85 370.12 308.92 C 367.55 307.48 364.00 306.62 362.88 303.61 C 367.26 303.23 371.63 305.29 376.01 303.95 C 382.30 302.48 386.54 297.07 390.58 292.43 C 392.65 289.53 394.88 286.52 395.67 282.98 C 395.31 279.58 392.30 277.22 390.31 274.67 C 391.73 271.52 392.79 268.18 394.72 265.28 C 397.06 268.08 399.91 271.45 403.99 270.99 C 458.99 271.02 513.99 270.99 568.99 271.00 C 573.71 271.04 578.49 270.52 582.94 268.85 C 582.56 265.23 579.88 262.51 577.73 259.79 Z" />
<path fill="#121212" opacity="1.00" d=" M 583.02 294.21 C 584.60 292.61 585.82 290.71 587.09 288.86 C 589.42 290.41 591.76 291.96 594.18 293.38 C 592.87 296.06 590.98 298.40 589.51 300.98 C 587.00 299.83 584.82 298.11 582.40 296.83 C 581.40 298.55 580.29 300.22 579.11 301.83 C 576.66 300.24 574.19 298.69 571.77 297.07 C 573.28 294.67 574.80 292.28 576.49 290.00 C 578.65 291.43 580.87 292.76 583.02 294.21 Z" />
<path fill="#121212" opacity="1.00" d=" M 584.27 301.84 C 586.70 303.18 588.92 304.87 591.35 306.23 C 590.12 308.86 588.26 311.13 586.76 313.60 C 584.38 311.94 582.07 310.18 579.62 308.64 C 580.97 306.24 582.76 304.13 584.27 301.84 Z" />
<path fill="#121212" opacity="1.00" d=" M 616.40 318.13 C 678.58 317.85 740.78 318.04 802.96 318.03 C 802.95 339.22 803.17 360.42 802.86 381.60 C 740.74 381.37 678.62 381.57 616.50 381.50 C 616.42 360.38 616.63 339.25 616.40 318.13 Z" />
<path fill="#121212" opacity="1.00" d=" M 616.42 443.90 C 616.64 424.25 616.38 404.61 616.54 384.96 C 678.69 385.05 740.85 384.98 803.00 385.00 C 803.00 404.67 803.00 424.33 803.00 444.00 C 740.81 443.93 678.61 444.14 616.42 443.90 Z" />
<path fill="#121212" opacity="1.00" d=" M 616.42 503.90 C 616.61 485.10 616.42 466.29 616.52 447.49 C 678.68 447.52 740.84 447.49 803.00 447.50 C 803.00 466.34 803.00 485.17 803.00 504.00 C 740.81 503.93 678.61 504.14 616.42 503.90 Z" />
</g>
<g id="#951b1eff">
<path fill="#951b1e" opacity="1.00" d=" M 96.87 396.89 C 101.54 393.97 105.56 389.80 110.75 387.85 C 111.29 404.55 110.78 421.28 111.01 437.99 C 111.03 440.79 111.88 444.14 114.72 445.34 C 117.66 446.40 120.88 445.89 123.94 446.01 C 255.30 445.99 386.66 446.00 518.02 446.00 C 526.32 445.98 534.71 446.13 542.89 444.47 C 548.45 443.32 553.73 441.18 559.14 439.47 C 554.26 437.25 549.08 435.77 544.12 433.74 C 540.04 432.39 535.72 430.17 531.34 431.49 C 527.95 432.32 526.81 437.28 523.01 436.90 C 521.08 436.90 521.26 434.25 521.69 433.01 C 523.29 428.33 526.33 424.26 529.77 420.77 C 532.89 417.59 537.61 415.40 542.06 417.04 C 557.04 421.35 571.35 428.36 587.00 430.07 C 589.27 430.48 591.94 429.99 593.78 431.71 C 591.52 436.02 589.55 440.59 586.63 444.48 C 582.94 445.84 578.57 444.31 574.82 445.96 C 563.49 450.18 553.82 458.04 542.19 461.54 C 536.32 463.47 530.13 464.17 523.98 464.06 C 387.31 464.04 250.64 464.09 113.96 464.04 C 109.26 464.25 104.54 461.87 102.20 457.74 C 98.54 451.52 98.40 444.03 98.30 437.02 C 98.29 423.63 97.70 410.25 96.87 396.89 Z" />
<path fill="#951b1e" opacity="1.00" d=" M 33.11 434.49 C 36.58 429.85 39.30 424.70 42.93 420.18 C 48.67 422.77 51.33 429.14 53.48 434.67 C 58.80 451.59 53.39 471.33 40.51 483.46 C 38.82 485.22 36.23 484.97 34.02 485.06 C 27.62 484.99 21.18 484.56 14.93 483.14 C 13.37 482.59 10.92 482.23 10.99 480.10 C 11.94 478.19 14.05 477.41 15.87 476.58 C 25.99 472.48 36.09 467.66 44.28 460.31 C 46.99 457.71 50.18 453.88 48.48 449.91 C 45.21 443.21 38.56 439.22 33.11 434.49 Z" />
<path fill="#951b1e" opacity="1.00" d=" M 541.09 476.03 C 543.68 473.33 546.22 470.57 549.01 468.07 C 552.09 469.37 554.05 472.79 556.68 474.95 C 559.11 472.55 561.37 469.97 564.01 467.78 C 566.57 470.33 569.34 472.67 571.75 475.36 C 572.48 476.77 570.49 477.70 569.82 478.71 C 567.79 480.27 566.38 483.11 563.92 483.81 C 561.38 481.79 559.32 479.25 556.94 477.07 C 554.39 479.37 552.32 482.26 549.34 484.07 C 546.65 481.33 543.75 478.80 541.09 476.03 Z" />
<path fill="#951b1e" opacity="1.00" d=" M 548.24 489.12 C 550.89 486.58 553.53 484.03 556.09 481.40 C 559.30 483.58 561.87 486.53 564.74 489.12 C 562.18 492.02 559.60 495.04 556.33 497.16 C 553.72 494.39 550.48 492.23 548.24 489.12 Z" />
</g>
</svg>
