<?xml version="1.0" encoding="UTF-8" ?>
<!DOCTYPE svg PUBLIC "-//W3C//DTD SVG 1.1//EN" "http://www.w3.org/Graphics/SVG/1.1/DTD/svg11.dtd">
<svg width="995pt" height="995pt" viewBox="0 0 995 995" version="1.1" xmlns="http://www.w3.org/2000/svg">
<g id="#121212ff">
<path fill="#121212" opacity="1.00" d=" M 0.00 0.00 L 373.00 0.00 C 373.00 121.33 373.00 242.66 373.00 363.99 C 372.08 386.31 372.71 408.66 372.53 431.00 C 372.50 492.57 372.59 554.15 372.49 615.72 C 367.01 616.29 361.49 615.96 356.00 616.00 C 237.33 616.00 118.67 616.00 0.00 616.00 L 0.00 0.00 Z" />
<path fill="#121212" opacity="1.00" d=" M 380.00 0.00 L 995.00 0.00 L 995.00 371.00 C 830.33 371.00 665.67 371.00 501.00 371.00 C 460.72 370.89 420.42 371.21 380.15 370.85 C 379.78 339.58 380.11 308.28 380.00 277.00 C 380.00 184.67 380.00 92.33 380.00 0.00 Z" />
<path fill="#121212" opacity="1.00" d=" M 622.51 378.28 C 627.99 377.71 633.50 378.04 639.00 378.00 C 757.67 378.00 876.33 378.00 995.00 378.00 L 995.00 995.00 L 380.00 995.00 C 380.00 913.33 380.00 831.67 380.00 750.00 C 380.11 707.95 379.78 665.90 380.16 623.86 C 386.42 623.27 392.72 623.68 399.00 623.61 C 473.32 623.55 547.65 623.69 621.97 623.54 C 622.98 618.08 622.37 612.51 622.47 607.00 C 622.50 530.76 622.41 454.52 622.51 378.28 Z" />
<path fill="#121212" opacity="1.00" d=" M 0.00 623.00 C 117.33 623.00 234.67 622.99 352.00 623.00 C 358.92 623.12 365.85 622.65 372.75 623.25 C 373.36 630.82 372.85 638.42 373.00 646.00 C 372.89 680.62 373.21 715.24 372.85 749.85 C 360.57 750.27 348.28 749.86 336.00 750.00 C 224.00 750.00 112.00 750.00 0.00 750.00 L 0.00 623.00 Z" />
<path fill="#121212" opacity="1.00" d=" M 0.00 757.00 C 81.67 757.00 163.33 757.00 245.00 757.00 C 287.61 757.11 330.24 756.79 372.85 757.15 C 373.25 773.42 372.87 789.72 373.00 806.00 C 372.88 828.95 373.23 851.91 372.85 874.85 C 355.91 875.25 338.95 874.87 322.00 875.00 C 214.67 875.00 107.33 875.00 0.00 875.00 L 0.00 757.00 Z" />
<path fill="#121212" opacity="1.00" d=" M 0.00 882.00 C 77.33 882.00 154.67 882.00 232.00 882.00 C 278.95 882.11 325.91 881.79 372.85 882.15 C 373.21 919.76 372.89 957.38 373.00 995.00 L 0.00 995.00 L 0.00 882.00 Z" />
</g>
<g id="#ffffffff">
<path fill="#ffffff" opacity="1.00" d=" M 373.00 0.00 L 380.00 0.00 C 380.00 92.33 380.00 184.67 380.00 277.00 C 380.11 308.28 379.78 339.58 380.15 370.85 C 420.42 371.21 460.72 370.89 501.00 371.00 C 665.67 371.00 830.33 371.00 995.00 371.00 L 995.00 378.00 C 876.33 378.00 757.67 378.00 639.00 378.00 C 633.50 378.04 627.99 377.71 622.51 378.28 C 622.41 454.52 622.50 530.76 622.47 607.00 C 622.37 612.51 622.98 618.08 621.97 623.54 C 547.65 623.69 473.32 623.55 399.00 623.61 C 392.72 623.68 386.42 623.27 380.16 623.86 C 379.78 665.90 380.11 707.95 380.00 750.00 C 380.00 831.67 380.00 913.33 380.00 995.00 L 373.00 995.00 C 372.89 957.38 373.21 919.76 372.85 882.15 C 325.91 881.79 278.95 882.11 232.00 882.00 C 154.67 882.00 77.33 882.00 0.00 882.00 L 0.00 875.00 C 107.33 875.00 214.67 875.00 322.00 875.00 C 338.95 874.87 355.91 875.25 372.85 874.85 C 373.23 851.91 372.88 828.95 373.00 806.00 C 372.87 789.72 373.25 773.42 372.85 757.15 C 330.24 756.79 287.61 757.11 245.00 757.00 C 163.33 757.00 81.67 757.00 0.00 757.00 L 0.00 750.00 C 112.00 750.00 224.00 750.00 336.00 750.00 C 348.28 749.86 360.57 750.27 372.85 749.85 C 373.21 715.24 372.89 680.62 373.00 646.00 C 372.85 638.42 373.36 630.82 372.75 623.25 C 365.85 622.65 358.92 623.12 352.00 623.00 C 234.67 622.99 117.33 623.00 0.00 623.00 L 0.00 616.00 C 118.67 616.00 237.33 616.00 356.00 616.00 C 361.49 615.96 367.01 616.29 372.49 615.72 C 372.59 554.15 372.50 492.57 372.53 431.00 C 372.71 408.66 372.08 386.31 373.00 363.99 C 373.00 242.66 373.00 121.33 373.00 0.00 Z" />
</g>
</svg>
