<?xml version="1.0" encoding="UTF-8" ?>
<!DOCTYPE svg PUBLIC "-//W3C//DTD SVG 1.1//EN" "http://www.w3.org/Graphics/SVG/1.1/DTD/svg11.dtd">
<svg width="995pt" height="995pt" viewBox="0 0 995 995" version="1.1" xmlns="http://www.w3.org/2000/svg">
<g id="#edededff">
<path fill="#ededed" opacity="1.00" d=" M 0.00 0.00 L 373.00 0.00 C 372.99 121.66 373.01 243.33 372.99 364.99 C 372.27 378.65 372.61 392.33 372.54 406.00 C 372.49 475.88 372.64 545.78 372.47 615.66 C 367.68 616.36 362.82 615.94 358.00 616.00 C 238.67 615.99 119.33 616.00 0.00 616.00 L 0.00 0.00 Z" />
<path fill="#ededed" opacity="1.00" d=" M 380.00 0.00 L 995.00 0.00 L 995.00 371.00 C 806.00 371.00 617.00 371.00 428.00 371.00 C 412.07 370.83 396.11 371.32 380.20 370.80 C 379.72 366.55 380.01 362.26 380.00 358.00 C 380.00 238.67 380.00 119.33 380.00 0.00 Z" />
<path fill="#ededed" opacity="1.00" d=" M 622.53 378.35 C 627.32 377.64 632.18 378.06 637.00 378.00 C 756.34 378.00 875.67 378.00 995.00 378.00 L 995.00 995.00 L 380.00 995.00 C 380.00 887.00 380.00 779.00 380.00 671.00 C 380.17 655.32 379.68 639.61 380.20 623.95 C 385.76 623.16 391.40 623.73 397.00 623.62 C 471.91 623.51 546.85 623.79 621.74 623.48 C 622.26 622.40 622.51 621.27 622.51 620.08 C 622.44 539.51 622.39 458.91 622.53 378.35 Z" />
<path fill="#ededed" opacity="1.00" d=" M 0.00 623.00 C 119.67 623.00 239.33 623.00 359.00 623.00 C 363.57 623.04 368.16 622.67 372.70 623.30 C 373.09 625.84 373.06 628.43 373.06 631.01 C 372.78 670.60 373.32 710.22 372.80 749.80 C 361.55 750.35 350.26 749.81 339.00 750.00 C 226.00 750.00 113.00 750.00 0.00 750.00 L 0.00 623.00 Z" />
<path fill="#ededed" opacity="1.00" d=" M 0.00 757.00 C 109.67 757.00 219.33 757.00 329.00 757.00 C 343.59 757.17 358.21 756.67 372.80 757.20 C 373.39 764.45 372.81 771.73 373.00 779.00 C 372.85 810.93 373.28 842.88 372.80 874.80 C 361.22 875.35 349.59 874.81 338.00 875.00 C 225.33 875.00 112.67 875.00 0.00 875.00 L 0.00 757.00 Z" />
<path fill="#ededed" opacity="1.00" d=" M 0.00 882.00 C 109.67 882.00 219.33 882.00 329.00 882.00 C 343.60 882.17 358.22 881.67 372.80 882.20 C 373.28 919.78 372.86 957.40 373.00 995.00 L 0.00 995.00 L 0.00 882.00 Z" />
</g>
<g id="#000000ff">
<path fill="#000000" opacity="1.00" d=" M 373.00 0.00 L 380.00 0.00 C 380.00 119.33 380.00 238.67 380.00 358.00 C 380.01 362.26 379.72 366.55 380.20 370.80 C 396.11 371.32 412.07 370.83 428.00 371.00 C 617.00 371.00 806.00 371.00 995.00 371.00 L 995.00 378.00 C 875.67 378.00 756.34 378.00 637.00 378.00 C 632.18 378.06 627.32 377.64 622.53 378.35 C 622.39 458.91 622.44 539.51 622.51 620.08 C 622.51 621.27 622.26 622.40 621.74 623.48 C 546.85 623.79 471.91 623.51 397.00 623.62 C 391.40 623.73 385.76 623.16 380.20 623.95 C 379.68 639.61 380.17 655.32 380.00 671.00 C 380.00 779.00 380.00 887.00 380.00 995.00 L 373.00 995.00 C 372.86 957.40 373.28 919.78 372.80 882.20 C 358.22 881.67 343.60 882.17 329.00 882.00 C 219.33 882.00 109.67 882.00 0.00 882.00 L 0.00 875.00 C 112.67 875.00 225.33 875.00 338.00 875.00 C 349.59 874.81 361.22 875.35 372.80 874.80 C 373.28 842.88 372.85 810.93 373.00 779.00 C 372.81 771.73 373.39 764.45 372.80 757.20 C 358.21 756.67 343.59 757.17 329.00 757.00 C 219.33 757.00 109.67 757.00 0.00 757.00 L 0.00 750.00 C 113.00 750.00 226.00 750.00 339.00 750.00 C 350.26 749.81 361.55 750.35 372.80 749.80 C 373.32 710.22 372.78 670.60 373.06 631.01 C 373.06 628.43 373.09 625.84 372.70 623.30 C 368.16 622.67 363.57 623.04 359.00 623.00 C 239.33 623.00 119.67 623.00 0.00 623.00 L 0.00 616.00 C 119.33 616.00 238.67 615.99 358.00 616.00 C 362.82 615.94 367.68 616.36 372.47 615.66 C 372.64 545.78 372.49 475.88 372.54 406.00 C 372.61 392.33 372.27 378.65 372.99 364.99 C 373.01 243.33 372.99 121.66 373.00 0.00 Z" />
</g>
</svg>
