<?xml version="1.0" encoding="utf-8"?>
<!-- Generator: Adobe Illustrator 19.0.0, SVG Export Plug-In . SVG Version: 6.00 Build 0)  -->
<svg version="1.1" id="Layer_1" xmlns="http://www.w3.org/2000/svg" xmlns:xlink="http://www.w3.org/1999/xlink" x="0px" y="0px"
	 width="1400px" height="980px" viewBox="0 0 1400 980" enable-background="new 0 0 1400 980" xml:space="preserve">
<g id="XMLID_577_">
	<path id="XMLID_583_" fill="#171613" d="M138.2,434.3c0.4-5.5,3.2-10.3,4.7-15.4c0.7-2.4,1-4.7,1.1-7.1c0.1-8.1-0.7-16.1,1-24.1
		c1.2-5.9,3.4-11.5,6.6-16.5c6.6-10.2,11.2-21.3,16.5-32.1c0.4-0.9,0.8-2,0.7-3c-0.6-8.3,4.3-13.2,10.8-16.5c4.1-2,8-4.3,11-7.5
		c8.8-9.2,19.5-9.3,30.7-7.1c7.4,1.5,14.5,1.5,21.6-1.5c9.1-3.8,18.4-1.8,27.6-0.6c1.7,0.2,3.4,0.4,5.1,0.5c3.3,0.1,6.7,0.5,9.8,1.8
		c6.4,2.7,13.1,4.2,20.1,4.2c11.4,0,22,2.9,31.7,9c5,3.2,11.1,3.5,16.8,4.9c7.9,2,14.2,6.8,20.8,11.2c3.2,2.1,4.7,5.8,6.6,9
		c0,1.6,0,3.2,0,4.8c-2,4.9-1.8,10.5-4.2,15.3c-2.8,5.7-2.7,11.8-1.7,17.6c2,10.9,0.3,21.6-0.8,32.3c-0.8,7.6-3,15-2.5,22.9
		c0.4,6-2.3,11.4-5.2,16.5c-1.4,2.5-3.8,3.9-6.5,4.7c-9.6,2.9-19.7,3.5-29.5,4.8c-15.3,2-30.9-0.7-46.1,2.9
		c-22.1-0.5-44.3,1.4-66.4,0c-15.3-1-30.5-2.7-45.9-3c-5.9-0.1-11.6-1.7-16.8-4.6c-2.1-1.2-4.4-1.8-6.8-2.2c-5.2-1-9.7-3-10.9-9
		C138.2,442.6,138.2,438.4,138.2,434.3z M142.7,444.5c-0.3,3.7,2,5.4,5.1,6.3c3.4,1,6.9,1.6,10.2,3.2c2.7,1.4,5.5,2.8,8.6,3.4
		c7.6,1.5,15.4,1,23.1,1.7c17.8,1.5,35.6,3.5,53.4,3.1c19.9-0.4,39.8,0.7,59.6-2.4c5.3-0.8,10.6,0,15.9-0.6
		c12.2,1.3,24-2.5,35.9-3.8c3-0.3,7-0.6,9.3-3.9c2.5-3.6,3.9-7.7,4.4-11.8c0.9-7.6,0.1-15.3,2.1-22.9c1.5-6,1-12.3,2-18.5
		c0.5-3.2,0.2-6.6-0.2-10c-1-9-2.7-18,1.5-26.8c2-4.2,2.4-9.1,3.1-13.7c0.4-3-0.2-5.8-2.5-7.9c-6-5.5-12.7-10-20.6-12.1
		c-8.6-2.3-17.2-4.1-24.7-9.1c-2.1-1.4-4.9-1.9-7.4-2.8c-6.1-2.1-12.5-2.1-18.8-2.3c-11.1-0.3-21-6-31.9-7.3c-8.3-1-16.8-2.4-24.9,1
		c-8.9,3.8-17.8,3.7-27.1,1.8c-9.1-1.8-17.8-1.4-24.9,6.1c-3.4,3.6-7.5,6.2-12.1,8.3c-4.1,1.9-8.3,4.6-8.1,10.2
		c0.1,3.1-0.7,5.9-2,8.6c-5.5,11-10.1,22.4-17,32.6c-0.8,1.1-1.2,2.5-1.9,3.7c-3.9,7.6-4.5,15.9-4.4,24.2c0,7.7,0.5,15.5-3.1,22.7
		C142.3,431.6,142.2,438,142.7,444.5z"/>
	<path id="XMLID_581_" fill="#FFD592" d="M138.2,446.7l-0.2,0.1l-0.3,0c0-4.2,0-8.3,0-12.5c0.2-0.1,0.3-0.1,0.5,0.1
		C138.2,438.4,138.2,442.6,138.2,446.7z"/>
	<path id="XMLID_503_" fill="#FFD592" d="M142.7,444.5c-0.5-6.5-0.4-12.9,2.6-18.9c3.5-7.2,3.1-15,3.1-22.7c0-8.3,0.6-16.6,4.4-24.2
		c0.6-1.2,1.1-2.6,1.9-3.7c7-10.2,11.6-21.7,17-32.6c1.3-2.7,2.1-5.5,2-8.6c-0.2-5.6,4.1-8.2,8.1-10.2c4.6-2.2,8.8-4.8,12.1-8.3
		c7.1-7.5,15.8-7.9,24.9-6.1c9.3,1.8,18.2,1.9,27.1-1.8c8.1-3.4,16.5-2,24.9-1c10.9,1.3,20.8,7,31.9,7.3c6.3,0.2,12.7,0.2,18.8,2.3
		c2.5,0.9,5.2,1.4,7.4,2.8c7.5,5,16.2,6.9,24.7,9.1c7.9,2.1,14.6,6.6,20.6,12.1c2.3,2.1,2.9,4.8,2.5,7.9c-0.6,4.7-1,9.5-3.1,13.7
		c-4.2,8.8-2.5,17.8-1.5,26.8c0.4,3.4,0.7,6.7,0.2,10c-1,6.2-0.5,12.5-2,18.5c-1.9,7.6-1.2,15.3-2.1,22.9c-0.5,4.1-2,8.2-4.4,11.8
		c-2.3,3.3-6.2,3.6-9.3,3.9c-12,1.3-23.7,5.1-35.9,3.8c-2.9-1.3-6-1.4-9.1-1.4c-10.5,0-21,0.1-31.5,0.1c-4.4,0-8.7,0.1-13.1-0.4
		c-9.8-1.1-19.6-2.8-29.6-2.5c-9.2,0.3-18.5,0-27.7,0.2c-3.5,0-6.9-0.4-10.3-1.1c-5-1-10-1.5-15-1.9c-7.4-0.6-14.9-0.4-22.3-1.9
		C153.9,449.1,148.3,446.8,142.7,444.5z M184,333.2c0.1,0.1,0.2,0.2,0.3,0.3C184.3,333.4,184.2,333.2,184,333.2
		c-0.4-1.5-0.7-2.9-1.2-4.3c-0.4-1.1-1.1-2-2.5-2c-0.9,0-1.5,0.5-1.8,1.3c-0.3,1.3-0.1,2.6,1,3.4C180.9,332.7,182.4,333.1,184,333.2
		z M346.5,355.9c7.9,0.4,15.7-0.1,23.1-3.2c1.6-0.7,3.1-1.4,2.7-3.4c-0.4-2.2-2.1-2.5-4-2.3c-0.8,0.1-1.6,0.2-2.4,0.5
		c-5.4,2-11,2.4-16.7,2.2c-8.4-0.2-16.8,0-25.1,2c-6.8,1.7-13.7,3.1-20.6,4.2c-8.2,1.3-16.5,1-24.8,0.1c-10.3-1.1-20.6-2.1-30.4-5.6
		c-8.1-2.9-16.3-2.4-24.6-1.6c-6.6,0.6-13.2,1.9-19.9,1.5c-5.6-0.3-11.2-0.5-13.1-7.6c-0.5-1.8-1-5.2-3.8-4.3
		c-2.9,0.9-1.1,3.8-0.8,5.8c1.4,7.5,5.5,12.1,12,12.3c8.4,0.3,16.8,0.4,25.2-0.9c5.4-0.9,11-2,16.5-0.5c11.9,3.3,23.7,6.2,36,7.4
		c12.3,1.2,24.5,1.4,36.7-1.4C323.7,358.5,334.8,355.2,346.5,355.9z M271.2,414.8c-1.1,0-2.3,0.2-3.4,0c-12.9-2.8-26.1-1.9-39.2-3.4
		c-10-1.2-20.2-1.5-29.9-5.1c-5.9-2.2-12.1-3-18.4-2.4c-3.9,0.4-7.8,0.3-11.7,0.7c-6.2,0.6-11.3-0.5-13.1-7.5c0-0.1-0.1-0.2-0.2-0.3
		c-0.5-1-1.3-1.7-2.5-1.3c-1.3,0.4-1.5,1.4-1.4,2.5c1.3,7.7,3.4,12.5,11.8,12.7c5.3,0.1,10.6,0.4,15.9-0.6
		c5.9-1.1,11.6-0.4,17.3,1.5c5.5,1.8,10.9,3.6,16.7,4c8.5,0.6,17,1.2,25.4,2.2C249.8,419.1,260.7,418.5,271.2,414.8z M346.2,412.9
		c-3.1-0.4-6.3-0.8-9.5-0.9c-7.7-0.3-15.1,1.7-22.7,2.2c-11.3,0.8-22.6,0.4-33.9,0.6c-0.9,0-1.9,0-2.8,0.1c-0.4,0.1-0.9,0.4-1,0.7
		c-0.3,0.7,0.2,1.1,0.8,1.2c0.8,0.2,1.5,0.5,2.3,0.6c6.3,0.5,12.6,1.1,18.9,1.4c10.4,0.4,20.8,0.3,31-1.5
		C335.1,416.5,341.5,418.3,346.2,412.9z M233.6,323.1c-2.5-0.6-5-1.2-7.5-1.8c-6.1-1.4-12.4,0.1-18.5-1.2c-1.4-0.3-2.9,0.2-3.2,1.8
		c-0.4,1.9,1.2,2.6,2.7,3C216,327.2,224.8,326.2,233.6,323.1z M300,337c-8-2.1-16.1-1.3-23.6-4.1c-1.4-0.5-2.8-0.8-3.5,1
		c-0.6,1.7,0.6,2.5,1.9,3.1C283.1,340.5,291.4,341.5,300,337z M323.3,337.6c0,0.1,0.1,0.3,0.1,0.4c1.8,0,3.7-0.2,5.5,0
		c3.3,0.4,6.6,0,9.8-0.8c1.6-0.4,2.8-1.3,2.5-3.1c-0.3-2-2.1-1.8-3.5-1.7c-0.6,0-1.1,0.1-1.7,0.3C331.8,334.4,327.5,336,323.3,337.6
		z M355.2,410.8c5.4,1.5,9.3-1.3,13.4-3.3c1.1-0.5,1.5-1.4,1-2.6c-0.5-1.2-1.5-1.2-2.6-0.8C362.7,405.7,358.9,407.9,355.2,410.8z"/>
	<path id="XMLID_431_" fill="#D3AD6C" d="M142.7,444.5c5.6,2.3,11.2,4.5,17.3,5.8c7.4,1.5,14.9,1.2,22.3,1.9c5.1,0.4,10.1,1,15,1.9
		c3.4,0.7,6.8,1.1,10.3,1.1c9.2-0.1,18.5,0.1,27.7-0.2c10-0.3,19.7,1.4,29.6,2.5c4.4,0.5,8.7,0.4,13.1,0.4c10.5,0,21-0.1,31.5-0.1
		c3.1,0,6.2,0.1,9.1,1.4c-5.3,0.6-10.6-0.3-15.9,0.6c-19.8,3.1-39.7,2-59.6,2.4c-17.9,0.4-35.6-1.6-53.4-3.1
		c-7.7-0.7-15.4-0.2-23.1-1.7c-3.1-0.6-5.9-2-8.6-3.4c-3.3-1.6-6.7-2.3-10.2-3.2C144.7,449.9,142.4,448.3,142.7,444.5z"/>
	<path id="XMLID_430_" fill="#F8A063" d="M346.5,355.9c-11.7-0.7-22.8,2.6-34,5.2c-12.2,2.9-24.3,2.6-36.7,1.4
		c-12.3-1.2-24.2-4.1-36-7.4c-5.5-1.5-11.1-0.3-16.5,0.5c-8.4,1.3-16.8,1.2-25.2,0.9c-6.4-0.2-10.6-4.8-12-12.3
		c-0.3-1.9-2.1-4.9,0.8-5.8c2.8-0.9,3.4,2.5,3.8,4.3c1.9,7.1,7.5,7.2,13.1,7.6c6.7,0.4,13.3-0.9,19.9-1.5c8.3-0.8,16.5-1.3,24.6,1.6
		c9.8,3.5,20.1,4.5,30.4,5.6c8.3,0.9,16.6,1.2,24.8-0.1c6.9-1.1,13.8-2.5,20.6-4.2c8.3-2,16.6-2.2,25.1-2c5.7,0.1,11.3-0.3,16.7-2.2
		c0.7-0.3,1.6-0.4,2.4-0.5c1.9-0.2,3.6,0.1,4,2.3c0.3,2-1.1,2.7-2.7,3.4C362.2,355.9,354.4,356.3,346.5,355.9z"/>
	<path id="XMLID_429_" fill="#F8A063" d="M271.2,414.8c-10.5,3.7-21.4,4.3-32.5,3.1c-8.5-1-17-1.6-25.4-2.2
		c-5.8-0.4-11.3-2.2-16.7-4c-5.7-1.9-11.4-2.6-17.3-1.5c-5.3,1-10.6,0.7-15.9,0.6c-8.3-0.2-10.4-5-11.8-12.7
		c-0.2-1.1,0.1-2.1,1.4-2.5c1.2-0.3,2,0.3,2.5,1.3c0.1,0.1,0.1,0.2,0.2,0.3c1.8,7,6.9,8,13.1,7.5c3.9-0.4,7.8-0.3,11.7-0.7
		c6.3-0.6,12.5,0.2,18.4,2.4c9.7,3.5,19.8,3.9,29.9,5.1c13,1.5,26.3,0.6,39.2,3.4C268.8,415,270,414.8,271.2,414.8z"/>
	<path id="XMLID_428_" fill="#F8A063" d="M346.2,412.9c-4.6,5.4-11,3.6-16.7,4.6c-10.3,1.8-20.6,1.9-31,1.5
		c-6.3-0.3-12.6-0.9-18.9-1.4c-0.8-0.1-1.6-0.4-2.3-0.6c-0.6-0.2-1.1-0.6-0.8-1.2c0.1-0.3,0.6-0.7,1-0.7c0.9-0.1,1.8-0.1,2.8-0.1
		c11.3-0.1,22.6,0.2,33.9-0.6c7.6-0.5,15-2.5,22.7-2.2C339.9,412.2,343,412.5,346.2,412.9z"/>
	<path id="XMLID_427_" fill="#F8A063" d="M233.6,323.1c-8.8,3.1-17.6,4.1-26.6,1.8c-1.5-0.4-3-1.1-2.7-3c0.3-1.6,1.8-2.2,3.2-1.8
		c6.1,1.4,12.4-0.2,18.5,1.2C228.6,321.9,231.1,322.5,233.6,323.1z"/>
	<path id="XMLID_426_" fill="#F8A063" d="M300,337c-8.7,4.5-16.9,3.5-25.2,0c-1.4-0.6-2.6-1.4-1.9-3.1c0.6-1.8,2.1-1.5,3.5-1
		C283.9,335.7,292.1,334.9,300,337z"/>
	<path id="XMLID_425_" fill="#F8A063" d="M323.3,337.6c4.2-1.6,8.5-3.2,12.7-4.8c0.5-0.2,1.1-0.3,1.7-0.3c1.5-0.1,3.2-0.3,3.5,1.7
		c0.3,1.8-0.9,2.7-2.5,3.1c-3.2,0.8-6.5,1.2-9.8,0.8c-1.8-0.2-3.7,0-5.5,0C323.4,337.9,323.3,337.8,323.3,337.6z"/>
	<path id="XMLID_424_" fill="#F8A063" d="M355.2,410.8c3.8-2.9,7.6-5.1,11.8-6.7c1.1-0.4,2.1-0.4,2.6,0.8c0.5,1.1,0.1,2-1,2.6
		C364.4,409.5,360.5,412.3,355.2,410.8z"/>
	<path id="XMLID_423_" fill="#F8A063" d="M184,333.2c-1.6-0.1-3.2-0.5-4.4-1.5c-1.1-0.9-1.3-2.1-1-3.4c0.2-0.9,0.9-1.3,1.8-1.3
		c1.4-0.1,2.1,0.8,2.5,2C183.4,330.3,183.7,331.7,184,333.2L184,333.2z"/>
	<path id="XMLID_422_" fill="#F8A063" d="M184.1,333.1c0.1,0.1,0.2,0.2,0.3,0.3C184.3,333.4,184.1,333.3,184.1,333.1L184.1,333.1z"
		/>
</g>
<g id="XMLID_584_">
	<path id="XMLID_363_" fill="#DDDDDC" d="M561.3,466c0-0.2,0-0.4,0-0.6c6.9,0,13.9,0,20.8,0c0,0.2,0,0.4,0,0.6
		C575.2,466,568.2,466,561.3,466z"/>
	<path id="XMLID_362_" fill="#DDDDDC" d="M567.5,267.1c0-0.2,0-0.4,0-0.6c4.2,0,8.3,0,12.5,0c0,0.2,0,0.4,0,0.6
		C575.9,267.1,571.7,267.1,567.5,267.1z"/>
	<path id="XMLID_236_" fill="#16130F" d="M567.5,267.1c4.2,0,8.3,0,12.5,0c25.2,1.8,48.5,9.2,68.9,24.2c14.7,10.8,23,26,27.1,43.6
		c0.6,2.5,0.2,4.9-1,7.3c-1.5,3.1-1.2,6.7-1.7,10.1c-3.4,20.6-8.9,40.8-14.5,60.9c-1.9,6.9-3.7,14-5.2,21
		c-2.2,10.4-9.8,14.6-18.7,18.2c-8.5,3.4-17.2,5.9-26,8.4c-8.8,2.5-17.7,4.1-26.8,4.7c-6.9,0-13.9,0-20.8,0
		c-20.2-1.7-40.4-3.6-59.9-9.8c-3.6-1.1-7.1-2.6-10.5-4.3c-12.5-6.2-12.6-6.4-15.5-20.3c-3.1-14.6-4.7-29.5-7.6-44.1
		c-2.2-11.1-4.5-22.3-7.3-33.3c-2.8-11.3-1.3-21.4,4.2-31.8c8.7-16.6,19.9-30.6,36.6-39.8c12.1-6.6,25.1-9.8,38.5-12.2
		C548.9,268.3,558.2,267.8,567.5,267.1z M463.6,337.8c7.8-4,16.1-4.8,23.7-0.4c6.7,3.9,12.1,3.4,18.6-0.3c9.1-5.1,19-8.3,28.8-0.9
		c0.5,0.4,1.2,0.7,1.9,0.8c5.9,1.1,11.7,1.3,17.6-0.8c8.7-3.1,17.4-4.8,26.4,0.9c5.7,3.6,12.9,4,18.5-0.7c8.9-7.3,25.3-6.8,34.6,2.2
		c2.6,2.5,5.1,2.1,7.9,1.2c1.8-0.6,3.3-1.6,4.7-2.9c4.5-4.1,9.7-4.8,15.5-3.4c3.4,0.8,6.1,3,9.4,4.3c0.2-0.7,0.3-1,0.3-1.3
		c0-0.6,0-1.2-0.2-1.7c-3.5-12.5-9-23.9-18-33.4c-9.4-10-21.4-15.7-33.9-20.9c-17.2-7.2-35.1-10.1-53.6-9.1c-0.9,0-1.9-0.1-2.5,0.8
		l0,0c-5.3-0.5-10.6,0.1-15.8,1.1c-0.4,0.1-0.7,0.2-1.1,0.2c-4.5-0.1-8.9,1.1-13.2,2c-13.5,2.7-26.6,6.8-38.1,14.7
		c-13.8,9.5-23,22.4-28.5,38.1C465.4,331.5,463.5,334.4,463.6,337.8c-0.1,0.1-0.2,0.2-0.3,0.3c0.1,0,0.2,0,0.2,0
		C463.6,338,463.6,337.9,463.6,337.8z M588.3,380.4c-0.1-11.2,0-22.4,0.6-33.6c0.1-1.2,0.8-2.9-1.7-2.9c-4.8,0-8.9-2.1-12.6-4.9
		c-0.7-0.6-1.4-1.2-2.4-1.2c-5.4-0.2-11-0.3-15.9,2.2c-4.5,2.3-9.2,3-14.1,2.5c-2.1-0.2-2.5,0.2-2.1,2.3c3.5,20.6,5.1,41.4,6,62.2
		c0.7,17.1,3,34,4.8,50.9c0.1,1.3,0.6,1.7,1.9,1.8c9.4,0.8,18.9,0.5,28.4,0.5c1.9,0,2.5-0.7,2.7-2.6c0.4-5.2,1.2-10.3,1.7-15.5
		C587.3,421.7,588.3,401.1,588.3,380.4z M616.1,335.9c-5.5,0-10.3,0.7-14.3,4.3c-2.2,2-5,3.4-8,3.7c-1.8,0.1-2,0.9-1.8,2.4
		c1,9.4,0.5,18.9,0.7,28.3c0.6,27.2,0,54.4-4.5,81.3c-0.6,3.5-0.2,3.9,3.3,3.3c8.9-1.4,17.4-4.1,26.1-6.2c2.5-0.6,3-1.9,3.2-4.1
		c0.5-6.9,1.8-13.7,3.2-20.4c5-25,10-50.1,11-75.7c0.2-4.2,0.9-7.9-3.9-10.7C626.2,339.3,621.9,335.3,616.1,335.9z M523.1,336.4
		c-1.5,0.2-3,0.3-4.4,0.5c-5.9,0.8-10.6,4.3-15.7,6.8c-2.6,1.3-2.8,2.7-2.5,5c1.4,10.1,2.7,20.3,4,30.4c1.7,13.2,3.5,26.4,5.3,39.7
		c1.3,9.5,2.6,18.9,3.8,28.4c0.7,5.7,1.4,6.9,7.2,7.9c7.7,1.4,15.4,2.7,23.1,3.9c1.9,0.3,3.1,0.4,2.5-2.5
		c-1.1-5.9-1.6-11.8-2.4-17.8c-1.8-13.3-2.6-26.6-3.1-39.9c-0.6-16.8-2-33.6-3-50.4c-0.3-4.4-0.6-7.5-5.6-8.8
		C529.3,338.9,526.9,335.6,523.1,336.4z M473.5,338.5c-0.7,0-1.4,0-2.1,0c-7.3,0-9.6,2.8-7.9,9.8c0.2,1,0.4,2,0.7,3
		c9.2,28.7,13,58.5,18.1,88c0.3,1.6,1.1,2.4,2.2,3.2c7.2,5.2,15.6,7.7,24,10.2c1.7,0.5,2.2,0.2,2-2c-0.5-5.9-2.4-11.4-3.3-17.2
		c-4.5-28.5-8.5-57.2-9.6-86.1c-0.1-1.4-0.2-2.2-1.8-2c-3.4,0.2-6.3-1.3-9-3C482.7,339.6,478.4,338.1,473.5,338.5z M625.6,450.8
		c2-0.9,3.8-1.2,4.9-2.3c2-2,4.5-2.1,6.9-2.5c5.2-1,9.9-4.9,10.8-9.8c2.6-14.4,6.8-28.3,10.6-42.4c4.3-15.8,8.1-31.8,11.1-47.9
		c0.4-2,1.1-4.1-1.8-5.1c-2.4-0.8-4.7-1.9-7.1-2.5c-4-1.1-7.9-1.2-11.3,2c-1.3,1.3-3.1,2-4.4,3.3c-2,2-6.1,0.2-6.8,3.2
		c-0.7,2.6,0.2,5.7,0.4,8.6c0.1,1.4,0,2.8,0,4.2c-0.5,21.6-4.3,42.8-8.6,63.8C628.5,432.3,626.7,441.2,625.6,450.8z"/>
	<path id="XMLID_230_" fill="#9D4C2E" d="M547.4,273.3c5.2-1,10.5-1.7,15.8-1.1c-1,0.9-2.8,1.3-2.1,3.1c0.7,1.8,2.3,1,3.6,0.8
		c1.7-0.3,3.4-0.8,4.5-2.2c-1.7-1.5-3.7-2-6-1.7c0.6-0.9,1.6-0.7,2.5-0.8c18.6-0.9,36.4,2,53.6,9.1c12.4,5.2,24.5,10.9,33.9,20.9
		c9,9.5,14.5,21,18,33.4c0.2,0.5,0.2,1.1,0.2,1.7c0,0.3-0.1,0.7-0.3,1.3c-3.3-1.3-6-3.5-9.4-4.3c-5.8-1.4-11-0.7-15.5,3.4
		c-1.4,1.3-2.9,2.3-4.7,2.9c-2.8,0.9-5.3,1.2-7.9-1.2c-9.4-9-25.8-9.5-34.6-2.2c-5.6,4.6-12.8,4.3-18.5,0.7
		c-8.9-5.7-17.6-4-26.4-0.9c-5.9,2.1-11.7,1.9-17.6,0.8c-0.7-0.1-1.4-0.4-1.9-0.8c-9.8-7.4-19.6-4.2-28.8,0.9
		c-6.6,3.6-12,4.2-18.6,0.3c-7.6-4.4-15.8-3.6-23.7,0.4l0,0c-0.2-3.5,1.7-6.4,2.8-9.5c5.5-15.7,14.8-28.6,28.5-38.1
		c11.5-7.9,24.5-12,38.1-14.7c4.4-0.9,8.7-2.1,13.2-2c-0.9,1.1-2.6,2-1.4,3.7c0.7,1,1.9,0.9,3.1,0.5c1.1-0.4,2.2-0.9,2.2-2.3
		C550.3,273.6,548.8,273.5,547.4,273.3z M552.1,285.3c1.9-0.4,5.3,0.9,5.1-2.4c-0.2-2.5-3.3-1.9-5.2-1.7c-1.7,0.1-4.4-0.3-4.3,2.2
		C547.8,286.1,550.5,284.9,552.1,285.3z M581.9,277c1.6-0.1,4.3,0.1,4.4-1.8c0.1-1.9-2.6-2.3-4.5-2.1c-1.5,0.1-3.7,0.2-3.6,2.3
		C578.3,277.5,580.1,277.3,581.9,277z M591.8,281c-0.2-1.6-1-2.3-2.3-2.1c-2,0.4-4.2,0.9-4.8,3.3c-0.3,1.4,0.9,2.3,2.1,2.1
		C588.9,284,591,283.3,591.8,281z M573.2,280.3c-1.5,0.4-3.1,1-3.6,2.9c-0.3,1.2,0.7,1.8,1.6,1.6c1.7-0.4,3.9-0.6,4.2-2.8
		C575.7,280.9,574.6,280.3,573.2,280.3z"/>
	<path id="XMLID_229_" fill="#9EBAE2" d="M588.3,380.4c0,20.7-1.1,41.3-2.9,61.9c-0.5,5.2-1.2,10.3-1.7,15.5
		c-0.2,1.9-0.7,2.6-2.7,2.6c-9.5-0.1-18.9,0.2-28.4-0.5c-1.3-0.1-1.7-0.4-1.9-1.8c-1.8-17-4.1-33.9-4.8-50.9
		c-0.9-20.8-2.4-41.6-6-62.2c-0.4-2.1,0.1-2.5,2.1-2.3c4.9,0.5,9.5-0.2,14.1-2.5c4.9-2.5,10.5-2.4,15.9-2.2c1,0,1.7,0.6,2.4,1.2
		c3.7,2.9,7.8,5,12.6,4.9c2.5,0,1.7,1.7,1.7,2.9C588.3,358,588.3,369.2,588.3,380.4z"/>
	<path id="XMLID_228_" fill="#9EBAE2" d="M616.1,335.9c5.8-0.6,10.1,3.4,15,6.4c4.7,2.8,4.1,6.4,3.9,10.7c-1,25.6-6,50.7-11,75.7
		c-1.3,6.8-2.7,13.5-3.2,20.4c-0.2,2.1-0.7,3.5-3.2,4.1c-8.7,2.1-17.2,4.8-26.1,6.2c-3.5,0.6-3.9,0.1-3.3-3.3
		c4.5-26.9,5-54.1,4.5-81.3c-0.2-9.5,0.3-18.9-0.7-28.3c-0.2-1.5,0-2.3,1.8-2.4c3.1-0.2,5.8-1.6,8-3.7
		C605.8,336.6,610.5,335.9,616.1,335.9z"/>
	<path id="XMLID_227_" fill="#9EBAE2" d="M523.1,336.4c3.8-0.8,6.1,2.5,9.2,3.3c5,1.3,5.3,4.4,5.6,8.8c1,16.8,2.3,33.6,3,50.4
		c0.5,13.4,1.3,26.7,3.1,39.9c0.8,5.9,1.3,11.9,2.4,17.8c0.6,2.9-0.6,2.8-2.5,2.5c-7.7-1.3-15.4-2.5-23.1-3.9
		c-5.7-1-6.5-2.3-7.2-7.9c-1.1-9.5-2.5-18.9-3.8-28.4c-1.8-13.2-3.5-26.4-5.3-39.7c-1.3-10.1-2.6-20.3-4-30.4
		c-0.3-2.3-0.1-3.8,2.5-5c5.1-2.5,9.8-6,15.7-6.8C520.2,336.7,521.7,336.5,523.1,336.4z"/>
	<path id="XMLID_226_" fill="#9EBAE2" d="M473.5,338.5c4.9-0.4,9.3,1.1,13.3,3.8c2.7,1.8,5.6,3.3,9,3c1.7-0.1,1.8,0.7,1.8,2
		c1.1,28.9,5.1,57.5,9.6,86.1c0.9,5.8,2.8,11.3,3.3,17.2c0.2,2.2-0.3,2.5-2,2c-8.4-2.5-16.8-4.9-24-10.2c-1.1-0.8-2-1.6-2.2-3.2
		c-5.1-29.5-8.9-59.3-18.1-88c-0.3-1-0.5-2-0.7-3c-1.7-7,0.7-9.8,7.9-9.8C472.1,338.5,472.8,338.5,473.5,338.5z"/>
	<path id="XMLID_225_" fill="#9EBAE2" d="M625.6,450.8c1.1-9.7,2.9-18.6,4.7-27.4c4.3-21.1,8.1-42.2,8.6-63.8c0-1.4,0.1-2.8,0-4.2
		c-0.2-2.9-1.1-5.9-0.4-8.6c0.8-2.9,4.8-1.2,6.8-3.2c1.3-1.3,3.1-2.1,4.4-3.3c3.4-3.2,7.3-3.1,11.3-2c2.4,0.6,4.7,1.7,7.1,2.5
		c2.9,0.9,2.1,3.1,1.8,5.1c-3,16.1-6.8,32.1-11.1,47.9c-3.8,14.1-7.9,28-10.6,42.4c-0.9,4.9-5.6,8.8-10.8,9.8
		c-2.4,0.5-4.9,0.6-6.9,2.5C629.4,449.6,627.6,449.9,625.6,450.8z"/>
	<path id="XMLID_224_" fill="#F2D4CA" d="M563.2,272.2c2.2-0.3,4.3,0.1,6,1.7c-1.1,1.4-2.8,1.9-4.5,2.2c-1.3,0.2-2.9,1-3.6-0.8
		C560.3,273.5,562.2,273,563.2,272.2C563.2,272.2,563.2,272.2,563.2,272.2z"/>
	<path id="XMLID_223_" fill="#F2D4CA" d="M547.4,273.3c1.4,0.2,2.9,0.3,2.8,2.2c0,1.3-1.1,1.8-2.2,2.3c-1.2,0.4-2.4,0.5-3.1-0.5
		c-1.2-1.7,0.5-2.6,1.4-3.7C546.7,273.5,547,273.4,547.4,273.3z"/>
	<path id="XMLID_222_" fill="#9D4C2E" d="M463.6,337.8c0,0.1-0.1,0.2-0.1,0.3c0,0-0.1,0-0.2,0C463.4,338,463.5,337.9,463.6,337.8
		L463.6,337.8z"/>
	<path id="XMLID_221_" fill="#F2D4CA" d="M552.1,285.3c-1.7-0.3-4.4,0.8-4.5-1.8c-0.1-2.5,2.6-2.1,4.3-2.2c1.9-0.2,5.1-0.8,5.2,1.7
		C557.4,286.1,554.1,284.9,552.1,285.3z"/>
	<path id="XMLID_220_" fill="#F2D4CA" d="M581.9,277c-1.8,0.3-3.6,0.5-3.7-1.6c0-2.1,2.1-2.2,3.6-2.3c1.9-0.1,4.6,0.2,4.5,2.1
		C586.3,277.1,583.5,276.9,581.9,277z"/>
	<path id="XMLID_219_" fill="#F2D4CA" d="M591.8,281c-0.8,2.2-2.9,3-5,3.3c-1.2,0.2-2.4-0.7-2.1-2.1c0.6-2.4,2.7-2.9,4.8-3.3
		C590.8,278.7,591.6,279.4,591.8,281z"/>
	<path id="XMLID_218_" fill="#F2D4CA" d="M573.2,280.3c1.4-0.1,2.5,0.5,2.3,1.7c-0.4,2.3-2.5,2.5-4.2,2.8c-1,0.2-1.9-0.4-1.6-1.6
		C570,281.3,571.7,280.7,573.2,280.3z"/>
</g>
<g id="XMLID_580_">
	<path id="XMLID_263_" fill="#171312" d="M1042.9,406.3c0.6-2.5,1-5,1.2-7.6c0.9-9,7-14,14.7-16.9c10.4-4,21.6-5.4,32.5-7.7
		c10.1-2.1,20.3-4.1,30.8-3.7c1.1,0,1.9,0,2.4-1.3c2.3-6.4,7.5-8.5,13.7-8.8c1.6-0.1,3.3,0,4.9-0.4c6.9-1.4,8.8-4.1,9.8-13.5
		c0.5-4.9,2.7-6.1,6.3-2.8c5.1,4.6,10.6,9.3,11.5,16.9c0.1,1,0.4,1.6,1.5,1.5c4.8-0.3,6.8,3.1,8.4,6.7c1,2.2,2.2,2.7,4.5,2.7
		c19.2,0,38.4,1.2,57.3,4.9c4.7,0.9,9.1,2.6,13.3,4.9c2.1,1.1,2.8,2.9,3.4,5.3c1.4,5.4,1.3,11.2,3.2,16.5c0,2.3,0,4.7,0,7
		c-2.1,1.9-1.9,5.1-4.1,7c-0.1,0.1,0.1,0.6,0.2,0.9c1.6,4,1.7,8.4,2.6,12.5c0.4,2.1-0.3,4.4,1.3,6.2c0,2.3,0,4.7,0,7
		c-0.5,0-0.8,0.4-1,0.8c-1.6,6.8-7.4,9.1-12.9,10.8c-5.8,1.8-12.1,2.4-18.2,3.1c-11.4,1.3-22.9,2.4-34.3,3.6
		c-7.3,0.7-14.7,1-21.9,2.3c-15.1,2.7-30.2,2.1-45.3,1.4c-11.7-0.6-23.4-2.4-35.2-2.3c-12.2,0.1-24.5,0.6-36.7-0.6
		c-6-0.6-12.7-5.7-14-11.3c0-3.3,0-6.6,0-9.8c2.1-5.4-1.4-12.2,4.6-16.6c-2.5-1.9-4.3-4.1-4.6-7.2
		C1042.9,413.8,1042.9,410,1042.9,406.3z M1157.5,346.9c-0.2-0.4-0.6-0.9-1-0.6c-0.7,0.7-0.5,1.7-0.4,2.5c0.1,8-4.2,12.6-11.5,14.9
		c-2.1,0.1-4.3,0.1-6.4,0.2c-0.5,0-0.9,0-1.4,0c-0.6-0.2-1.1-0.1-1.5,0.3c-5.8,0.7-8.5,4.4-8.2,11.3c0.7,2.2-0.4,3.4-2.2,4.2
		c-0.2,0.1-0.5,0.1-0.7,0.2c-0.4-0.1-0.6,0.2-0.7,0.5c-3.9,1.7-3.4,5.3-3.3,8.4c0.1,2.9,2.6,3.2,5.1,3.7c6.8,1.3,13.7,1.3,20.5,1.5
		c12.1,0.3,24.2,0.5,35.9-3.7c3.2-1.1,4-2.2,2.9-5.3c-0.9-2.8-2.9-4.3-5.5-5.4c-1.4-3.5-1.2-7.5-3.1-10.9c-1.1-1.9-1.9-4.2-4.8-3.6
		c-1.5-0.5-2.7,0.8-4.2,0.7c-0.6-1.1-1.1-2-0.7-3.5c0.4-1.8,0.2-3.8-0.9-5.4C1163.1,353.4,1160.9,349.7,1157.5,346.9L1157.5,346.9z
		 M1046.5,449.1c-0.1,1.5-0.3,3.1,1,4.2c3,2.5,6,4.6,10.1,5c7.6,0.8,15.1,0.4,22.7,0.6c9,0.2,17.9-0.2,26.9,0.4
		c10,0.7,19.9,2.4,29.9,2.3c12.8-0.1,25.5,0,38.3-1.9c15.9-2.3,31.9-3.4,47.8-5.1c8-0.8,16-1.5,23.7-3.7c4-1.1,9.4-1.7,10.4-7.5
		c0.9-3.5,0.6-7,0-10.5c0-1.9,0-3.8,0-5.7c-3.2,3.3-6.2,6.1-10.2,7c-11.1,2.6-22.3,5.2-33.6,6.2c-22,1.9-44,2.3-66.1,2.9
		c-26.7,0.7-53.5,0.4-80.2,0c-6.7-0.1-13.2-1.1-19.4-3.5c-1.1-1.2-1.9-1.5-1.9,0.6C1046.2,443.4,1046.3,446.2,1046.5,449.1z
		 M1106.6,405.2c26.2,0.4,52.3-0.9,78.4-1.7c20.2-0.6,40.2-2.7,59.9-7.2c4.5-1,7.6-3.8,9.6-7.9c0.8-1.7,0.5-2.8-1.3-3.6
		c-3.3-1.5-6.6-3-10.1-3.7c-18.7-4-37.7-4.8-56.7-5.3c-1.1,0-2.6-0.8-3.2,0.5c-0.8,1.7,1.2,2,1.9,2.9c0.7,0.9,1.6,1.7,2.2,2.7
		c1.6,2.8,3.1,5.7,1.1,8.8c-1.9,3-4.9,4.6-8.6,4.2c-1.2-0.1-2.4,0-3.4,0.4c-5.6,2.3-11.5,2.4-17.5,2.6c-11.8,0.4-23.5-1.1-35.2-1.7
		c-2.9-0.1-5.5-1.4-6.8-4.2c-2.1-4.3,0.3-11.8,4.3-14.2c0.9-0.5,2.7-0.5,2.3-2.1c-0.4-1.9-2.1-0.9-3.2-0.9
		c-9.4-0.3-18.5,1.7-27.6,3.5c-10.5,2.1-21,4-31.3,7c-5.5,1.6-9.7,5-12.6,9.9c-2.3,3.8-1.2,6.4,3,7.8c3.6,1.2,7.2,1.8,11,2
		C1077.4,405.9,1092,404.9,1106.6,405.2z M1257.2,392.9c-2.9,4-5.8,6.8-9.7,7.7c-11.1,2.7-22.3,5.1-33.6,6.3
		c-13.2,1.3-26.5,1.7-39.8,2.2c-34.2,1.3-68.4,1.3-102.6,0.9c-8.5-0.1-17-0.5-24.9-4.5c-0.7,2.9-0.2,5.5-0.2,8.1
		c0,5.9,4.3,10.4,10.2,11c5.3,0.5,10.7,0.8,16.1,0.7c19.5-0.4,38.9,0.6,58.3,2.4c12.3,1.1,24.8,1.3,37-0.6
		c14.6-2.2,29.4-3.2,44.1-4.7c11.9-1.2,23.8-2.5,35.6-5c8.6-1.8,10.6-4.5,10.3-13.3C1257.8,400.6,1257.4,397.2,1257.2,392.9z
		 M1106.6,438.9c24.6,0.2,49.2-0.7,73.8-1.7c20.1-0.8,40-2,59.7-6.2c6.4-1.4,11.5-3.8,15.4-9c0.7-0.9,0.7-1.7,0.2-2.5
		c-0.5-0.9-1.3-0.7-2.1-0.3c-7.3,4.1-15.6,4.1-23.6,5.2c-11.2,1.5-22.4,2.4-33.6,3.6c-7.4,0.8-14.9,1-22.2,2.4
		c-15,2.7-30,2.1-45,1.4c-13.1-0.7-26.2-2.5-39.4-2.4c-12.3,0.1-24.7,0.9-37-1.2c-1.8-0.3-4.2-0.5-4.8,2.2c-0.5,2.6-0.1,4.9,2.9,5.9
		c3.9,1.3,7.9,2,12,2.3C1077.4,439.5,1092,438.6,1106.6,438.9z"/>
	<path id="XMLID_261_" fill="#F9F9F9" d="M1262.3,436.4c-1.6-1.8-0.9-4.1-1.3-6.2c-0.9-4.2-1-8.5-2.6-12.5c-0.1-0.3-0.4-0.8-0.2-0.9
		c2.2-1.9,2-5.1,4.1-7C1262.3,418.7,1262.3,427.6,1262.3,436.4z"/>
	<path id="XMLID_260_" fill="#F9F9F9" d="M1042.9,417.5c0.3,3.1,2.1,5.3,4.6,7.2c-6,4.3-2.5,11.2-4.6,16.6c-0.2,0-0.4,0-0.6,0
		c0-7.9,0-15.9,0-23.8l0.3,0L1042.9,417.5z"/>
	<path id="XMLID_259_" fill="#DCDBDB" d="M1042.9,417.5l-0.3,0l-0.3,0c0-3.7,0-7.5,0-11.2c0.2,0,0.4,0,0.6,0
		C1042.9,410,1042.9,413.8,1042.9,417.5z"/>
	<path id="XMLID_258_" fill="#DCDBDB" d="M1042.3,441.3c0.2-0.1,0.4-0.1,0.6,0c0,3.3,0,6.6,0,9.8l-0.3,0l-0.3,0
		C1042.3,447.9,1042.3,444.6,1042.3,441.3z"/>
	<path id="XMLID_257_" fill="#FFD592" d="M1106.6,405.2c-14.6-0.3-29.2,0.6-43.8-0.3c-3.7-0.2-7.4-0.8-11-2c-4.2-1.4-5.3-3.9-3-7.8
		c2.9-4.9,7.1-8.3,12.6-9.9c10.3-3,20.8-4.9,31.3-7c9.1-1.8,18.2-3.9,27.6-3.5c1.1,0,2.8-1,3.2,0.9c0.3,1.6-1.4,1.6-2.3,2.1
		c-4.1,2.4-6.5,10-4.3,14.2c1.4,2.8,4,4.1,6.8,4.2c11.7,0.6,23.4,2.1,35.2,1.7c6-0.2,11.9-0.3,17.5-2.6c1.1-0.4,2.2-0.5,3.4-0.4
		c3.7,0.4,6.7-1.2,8.6-4.2c2-3.1,0.5-6.1-1.1-8.8c-0.6-1-1.4-1.8-2.2-2.7c-0.7-0.9-2.7-1.2-1.9-2.9c0.6-1.3,2.1-0.6,3.2-0.5
		c19,0.5,38,1.3,56.7,5.3c3.6,0.8,6.8,2.2,10.1,3.7c1.7,0.8,2.1,1.9,1.3,3.6c-2,4.2-5.1,6.9-9.6,7.9c-19.7,4.4-39.7,6.6-59.9,7.2
		C1158.9,404.3,1132.7,405.7,1106.6,405.2z"/>
	<path id="XMLID_256_" fill="#FFD592" d="M1257.2,392.9c0.3,4.3,0.7,7.7,0.7,11.2c0.2,8.8-1.7,11.5-10.3,13.3
		c-11.7,2.4-23.6,3.7-35.6,5c-14.7,1.5-29.4,2.5-44.1,4.7c-12.3,1.8-24.8,1.7-37,0.6c-19.4-1.7-38.8-2.7-58.3-2.4
		c-5.4,0.1-10.7-0.2-16.1-0.7c-5.9-0.6-10.2-5.1-10.2-11c0-2.6-0.6-5.3,0.2-8.1c8,4,16.4,4.4,24.9,4.5c34.2,0.4,68.4,0.4,102.6-0.9
		c13.3-0.5,26.6-0.9,39.8-2.2c11.3-1.1,22.5-3.6,33.6-6.3C1251.3,399.6,1254.3,396.9,1257.2,392.9z"/>
	<path id="XMLID_255_" fill="#FFD592" d="M1257.4,443.5c-1.1,5.8-6.4,6.4-10.4,7.5c-7.7,2.2-15.7,2.9-23.7,3.7
		c-16,1.6-32,2.7-47.8,5.1c-12.8,1.9-25.5,1.8-38.3,1.9c-10,0.1-20-1.6-29.9-2.3c-9-0.6-17.9-0.2-26.9-0.4
		c-7.6-0.2-15.1,0.2-22.7-0.6c-4.1-0.4-7.1-2.6-10.1-5c-1.3-1.1-1.1-2.7-1-4.2c1.3-1.1,0.5-2.6,0.8-3.9c0.3-1.8-0.7-3.7,0.8-5.3
		c6.2,2.5,12.8,3.5,19.4,3.5c26.7,0.3,53.5,0.7,80.2,0c22-0.6,44.1-1,66.1-2.9c11.3-1,22.5-3.6,33.6-6.2c4-1,7.1-3.8,10.2-7
		c0,1.9,0,3.8,0,5.7C1256.3,436.4,1256.3,439.9,1257.4,443.5z"/>
	<path id="XMLID_254_" fill="#E76B6A" d="M1106.6,438.9c-14.6-0.3-29.2,0.6-43.8-0.4c-4.1-0.3-8.1-1-12-2.3c-3-1-3.4-3.3-2.9-5.9
		c0.5-2.7,3-2.6,4.8-2.2c12.3,2.2,24.7,1.3,37,1.2c13.2-0.1,26.3,1.7,39.4,2.4c15,0.7,30,1.4,45-1.4c7.3-1.3,14.8-1.6,22.2-2.4
		c11.2-1.2,22.5-2.1,33.6-3.6c8-1.1,16.3-1.1,23.6-5.2c0.8-0.5,1.6-0.6,2.1,0.3c0.5,0.8,0.5,1.6-0.2,2.5c-3.9,5.1-9,7.6-15.4,9
		c-19.7,4.2-39.6,5.5-59.7,6.2C1155.8,438.2,1131.2,439.2,1106.6,438.9z"/>
	<path id="XMLID_253_" fill="#F9F9F9" d="M1124.3,379.9c0.2-0.1,0.5-0.1,0.7-0.2c3.1,2.5,6.9,2.5,10.5,3.1c8.7,1.4,17.4,2,26.2,0.5
		c5.8-1,11.4-3.2,17.4-3.7c2.6,1.1,4.6,2.6,5.5,5.4c1.1,3.1,0.3,4.2-2.9,5.3c-11.7,4.1-23.8,4-35.9,3.7c-6.9-0.2-13.7-0.2-20.5-1.5
		c-2.5-0.5-4.9-0.8-5.1-3.7c-0.1-3.1-0.6-6.7,3.3-8.4C1123.8,380.2,1124,380,1124.3,379.9z"/>
	<path id="XMLID_252_" fill="#FDFDFD" d="M1136.9,363.9c0.5,0,0.9,0,1.4,0c0.1,2.7,2.3,3.3,4.3,3.8c4,1,8.2,1.1,12.4,1.6
		c4.7,0.6,9.1,1,12.1-3.5c1.4,0.1,2.7-1.3,4.2-0.7c0.4,1,0.8,1.9,1.2,2.9c2.4,5,1.4,7-3.8,8.3c-1.7,0.4-3.4,0.6-5.2,0.6
		c-12.1,0-24.2,0.4-36.2-1.4c-0.3-6.8,2.3-10.5,8.2-11.3C1135.9,364.4,1136.4,364.4,1136.9,363.9z"/>
	<path id="XMLID_251_" fill="#DCDBDB" d="M1127.2,375.5c12,1.8,24.1,1.4,36.2,1.4c1.7,0,3.4-0.1,5.2-0.6c5.2-1.3,6.2-3.4,3.8-8.3
		c-0.4-0.9-0.8-1.9-1.2-2.9c2.9-0.6,3.7,1.8,4.8,3.6c1.9,3.4,1.7,7.4,3.1,10.9c-5.9,0.5-11.5,2.7-17.4,3.7c-8.8,1.5-17.5,1-26.2-0.5
		c-3.6-0.6-7.4-0.7-10.5-3.1C1126.8,378.8,1127.9,377.6,1127.2,375.5z"/>
	<path id="XMLID_250_" fill="#DCDBDB" d="M1167,365.8c-3.1,4.6-7.4,4.1-12.1,3.5c-4.1-0.5-8.3-0.6-12.4-1.6
		c-1.9-0.5-4.1-1.2-4.3-3.8c2.1-0.1,4.3-0.1,6.4-0.2c4.6,2.4,9.5,0.9,14.3,1.2c1.2,0.1,1.5-1.1,1.9-2.1c1.8-4-0.5-7.2-2.3-10.4
		c-1-1.8-1.7-3.5-1.1-5.5c3.3,2.8,5.6,6.5,8,10.1c1.1,1.6,1.3,3.6,0.9,5.4C1166,363.8,1166.4,364.8,1167,365.8z"/>
	<path id="XMLID_249_" fill="#F9F9F9" d="M1157.5,346.9c-0.6,2,0,3.7,1.1,5.5c1.8,3.2,4.1,6.3,2.3,10.4c-0.4,1-0.7,2.2-1.9,2.1
		c-4.8-0.3-9.7,1.2-14.3-1.2c7.2-2.3,11.6-6.9,11.5-14.9C1156.6,348.2,1157,347.5,1157.5,346.9L1157.5,346.9z"/>
	<path id="XMLID_248_" fill="#E7B7A7" d="M1048,439.9c-1.5,1.6-0.5,3.5-0.8,5.3c-0.2,1.3,0.5,2.8-0.8,3.9c-0.1-2.9-0.3-5.7-0.4-8.6
		C1046,438.4,1046.9,438.7,1048,439.9z"/>
	<path id="XMLID_247_" fill="#E7B7A7" d="M1257.4,443.5c-1.1-3.5-1.2-7,0-10.5C1258,436.4,1258.3,439.9,1257.4,443.5z"/>
	<path id="XMLID_246_" fill="#DCDBDB" d="M1157.5,346.9c-0.4,0.7-0.9,1.3-1.3,2c-0.1-0.9-0.3-1.9,0.4-2.5
		C1156.9,345.9,1157.3,346.5,1157.5,346.9z"/>
	<path id="XMLID_245_" fill="#DCDBDB" d="M1136.9,363.9c-0.4,0.5-1,0.4-1.5,0.3C1135.8,363.8,1136.3,363.7,1136.9,363.9z"/>
	<path id="XMLID_244_" fill="#DCDBDB" d="M1124.3,379.9c-0.2,0.2-0.5,0.3-0.7,0.5C1123.7,380,1123.8,379.7,1124.3,379.9z"/>
</g>
<g id="XMLID_574_">
	<path id="XMLID_185_" fill="#E4E4E4" d="M862.6,310.8c0-0.2,0-0.4,0-0.6c2.8,0,5.5,0,8.3,0c0,0.2,0,0.4,0,0.6
		C868.2,310.8,865.4,310.8,862.6,310.8z"/>
	<path id="XMLID_182_" fill="#151210" d="M862.6,310.8c2.8,0,5.6,0,8.3,0c7.5,0.2,14.9,1,22,3.5c0.5,0.2,1.2,0.5,1.7,0.4
		c6.8-1.6,11.8,2.4,17.4,5c5.6,2.6,11.3,5.1,16.9,7.8c9.2,4.4,16.8,10.8,22.8,19.2c6,8.4,11.7,17.1,16,26.6c8.2,18,4.5,35-5,51.3
		C952,443.1,935,453.2,915,459.1c-21.3,6.3-43.2,7.6-65.3,6.6c-15.2-0.7-30.3-2.2-45-6.5c-19.6-5.8-35.5-16.6-44.5-35.5
		c-11.5-24.3-7.3-47,9.5-67.2c20.5-24.8,47.2-39.1,78.8-44.3C853.2,311.4,857.9,311.1,862.6,310.8z M804.4,333.7L804.4,333.7
		c-0.4,0.1-0.9,0.2-1.3,0.4c-13,8.1-24.2,18.1-32.9,30.7c-16.5,24.2-13.1,54,8.3,73.6c10.3,9.5,23,14.2,36.4,17.2
		c18.1,4.1,36.6,4.5,55,4.2c15.4-0.3,30.5-2.4,45.2-7c18.2-5.7,33.6-15.2,43.2-32.3c9.6-17,11.5-34.2,0.7-51.6
		c-3.6-5.8-7-11.6-10.8-17.3c-7.6-11.4-18.4-18.5-30.8-23.4c-2.3-1.5-4.8-2.7-7.3-3.6c-9.3-6.3-20-8-30.8-9.4
		c-3.2-0.2-6.4-0.6-9.6-0.1c-16.8-0.5-32.8,2.7-48.1,9.7c-5.7,1.8-10.8,4.8-15.8,8C805.2,332.8,804.6,333,804.4,333.7z"/>
	<path id="XMLID_181_" fill="#E76B6A" d="M917.4,328.2c12.5,4.9,23.3,12,30.8,23.4c3.8,5.7,7.2,11.5,10.8,17.3
		c10.8,17.4,8.9,34.6-0.7,51.6c-9.6,17.1-25,26.6-43.2,32.3c-14.7,4.6-29.8,6.7-45.2,7c-18.5,0.3-36.9-0.1-55-4.2
		c-13.4-3-26.1-7.7-36.4-17.2c-21.4-19.6-24.8-49.4-8.3-73.6c8.6-12.7,19.9-22.6,32.9-30.7c0.4-0.2,0.8-0.3,1.3-0.4
		c0.3,1.6-1.1,2.2-2,3c-3.4,3.4-6.8,6.9-9.4,11.1c-1.4,2.3-2.8,4.5-2.5,7.4c0.1,1.2,0.1,2.5,1.6,2.7c1.3,0.2,1.6-1.1,2-2
		c4.6-10.1,12.5-17.2,21.4-23.4c2.1-1.4,5.3-3.7,7.1-2c1.7,1.6-0.6,4.7-1.9,6.8c-3.9,6.1-7.9,12.2-12,18.2c-1.8,2.7-2.8,5.6-2.9,8.7
		c0,3.4,1.5,4.8,4.8,4.9c3.1,0.1,5.9-1,8.4-2.7c11.3-7.5,21.5-16.3,30.4-26.6c4.3-5,9.1-9.5,13.9-14c2.5-2.4,5.3-4.5,8.6-5.7
		c3.3-1.2,4.2-0.3,4.5,3.1c0.6,7.3-2.3,13.1-7.2,18c-5.1,5.1-9.8,10.4-14,16.2c-1.8,2.5-4.4,5.1-2.4,8.4c2,3.3,5.6,2.1,8.5,1.4
		c10.8-2.6,18.9-9.2,26-17.4c4.8-5.5,9.5-11,14.8-16c2.1-2,4.6-3.4,7.5-4c2-0.4,2.5,0.1,2.8,2.2c0.8,7.7-1.6,14-7.3,19.2
		c-3.2,3-6.4,6-8.9,9.6c-2.9,4.3-1.4,7.7,3.8,8.1c5.3,0.5,10.5-0.2,15.5-2.5c4.7-2.2,8.2-5.9,11.9-9.3c3.3-3,6.6-6.2,11.6-6.2
		c1.9,0,4.3,0.2,4.2-2.4c-0.1-2.6-2.5-3-4.7-2.9c-3.4,0.2-6.5,1.3-9.3,3.3c-3.7,2.6-6.9,5.7-10.2,8.8c-3.4,3.3-7.6,5.3-12.3,5.6
		c-1.4,0.1-3.6,0.9-4.2-0.4c-0.8-1.7,1.6-2.5,2.5-3.7c0.6-0.8,1.4-1.5,2.2-2.2C916.2,349.5,920,340,917.4,328.2z"/>
	<path id="XMLID_180_" fill="#FEFAF8" d="M917.4,328.2c2.6,11.8-1.2,21.3-10.1,29c-0.8,0.7-1.6,1.4-2.2,2.2c-0.9,1.2-3.3,2-2.5,3.7
		c0.6,1.3,2.7,0.5,4.2,0.4c4.8-0.3,8.9-2.3,12.3-5.6c3.3-3.1,6.5-6.2,10.2-8.8c2.8-2,5.9-3.2,9.3-3.3c2.2-0.1,4.6,0.3,4.7,2.9
		c0.1,2.5-2.3,2.4-4.2,2.4c-5-0.1-8.3,3.2-11.6,6.2c-3.8,3.4-7.2,7.1-11.9,9.3c-5,2.3-10.2,3-15.5,2.5c-5.2-0.5-6.6-3.9-3.8-8.1
		c2.5-3.7,5.7-6.7,8.9-9.6c5.7-5.2,8.2-11.5,7.3-19.2c-0.2-2-0.8-2.6-2.8-2.2c-3,0.6-5.4,2-7.5,4c-5.3,5-10,10.5-14.8,16
		c-7.1,8.1-15.2,14.8-26,17.4c-2.9,0.7-6.5,1.9-8.5-1.4c-2-3.3,0.6-5.9,2.4-8.4c4.2-5.8,8.9-11.1,14-16.2c4.9-4.9,7.8-10.8,7.2-18
		c-0.3-3.3-1.2-4.2-4.5-3.1c-3.3,1.2-6.1,3.3-8.6,5.7c-4.8,4.5-9.6,9.1-13.9,14c-8.9,10.3-19.1,19-30.4,26.6
		c-2.5,1.7-5.3,2.8-8.4,2.7c-3.3-0.1-4.8-1.5-4.8-4.9c0-3.2,1.1-6.1,2.9-8.7c4.1-6,8.1-12,12-18.2c1.3-2.1,3.6-5.3,1.9-6.8
		c-1.8-1.6-5,0.6-7.1,2c-8.9,6.1-16.8,13.3-21.4,23.4c-0.4,0.9-0.6,2.2-2,2c-1.5-0.2-1.5-1.5-1.6-2.7c-0.2-2.8,1.2-5.1,2.5-7.4
		c2.6-4.1,6-7.6,9.4-11.1c0.8-0.8,2.2-1.4,2-3l0,0c0.9,0.2,1.3-0.1,1.4-1c5-3.2,10.1-6.2,15.8-8c5.5,0.3,6.5,1.5,6.5,7
		c0,3.8-1.6,6.9-3.5,9.9c-3.5,5.5-7.2,11-10.7,16.5c-0.9,1.5-2.8,3.4-1.3,4.9c1.1,1.1,3.1-0.8,4.5-1.7c10.7-7,20.1-15.4,28.6-24.9
		c7.2-8.1,14.6-15.9,24.1-21.4c3.2-0.5,6.4-0.1,9.6,0.1c0.9,1.2,2,2.2,2.3,3.8c0.8,5.5,1.1,11-1.2,16.3c-2.5,5.7-6.6,10.2-11,14.5
		c-3.6,3.6-6.9,7.6-9.5,11.9c1,0.7,1.7,0.4,2.3,0.2c5.9-1.9,11.1-5,15.6-9.3c6.8-6.5,12.6-14,19.3-20.7c3.6-3.7,7.8-6.4,13.1-7.1
		C912.6,325.5,915.1,326.7,917.4,328.2z"/>
	<path id="XMLID_179_" fill="#E76B6A" d="M869.7,315c-9.5,5.5-16.9,13.3-24.1,21.4c-8.4,9.5-17.9,17.9-28.6,24.9
		c-1.4,0.9-3.3,2.8-4.5,1.7c-1.5-1.4,0.4-3.4,1.3-4.9c3.5-5.5,7.2-11,10.7-16.5c1.9-3,3.5-6.2,3.5-9.9c0-5.6-1-6.7-6.5-7
		C836.9,317.7,852.9,314.6,869.7,315z"/>
	<path id="XMLID_178_" fill="#E76B6A" d="M910.1,324.6c-5.3,0.7-9.4,3.5-13.1,7.1c-6.7,6.7-12.4,14.2-19.3,20.7
		c-4.5,4.3-9.7,7.4-15.6,9.3c-0.7,0.2-1.3,0.5-2.3-0.2c2.7-4.4,5.9-8.3,9.5-11.9c4.4-4.3,8.5-8.8,11-14.5c2.4-5.3,2-10.7,1.2-16.3
		c-0.2-1.6-1.4-2.6-2.3-3.8C890.1,316.5,900.8,318.2,910.1,324.6z"/>
	<path id="XMLID_177_" fill="#ECB796" d="M805.8,332.7c-0.1,0.9-0.5,1.2-1.4,1C804.6,333,805.2,332.8,805.8,332.7z"/>
</g>
<g id="XMLID_57_">
	<path id="XMLID_317_" fill="#12110F" d="M258.5,713.5c-3.6-1.4-7.4-0.9-11-1.2c-21-1.8-40.9-6.9-59.4-17
		c-14.7-8.1-27.5-18.4-37.3-32.3c-7.6-10.8-11.8-22.8-12.8-35.9c-2.4-34,10.3-62.3,33.4-86.3c14.5-15.1,31.3-27.1,51.4-33.8
		c6.3-2.1,12.9-3.3,19.5-4c0.6-0.1,1.4,0.3,1.7-0.7c4.4,0,8.8,0,13.2,0c4.2,1.5,8.7,1.1,13,1.8c5.6,0.9,11.1,2.2,16,4.9
		c9.9,5.2,20.6,8.2,30.8,12.7c22,9.8,40.8,23.7,54.4,43.8c21.2,31.5,20.6,63.9,2.2,96.2c-14.6,25.5-37.9,39.3-65.8,46.3
		c-11.3,2.8-22.8,4.3-34.4,4.9c-0.6,0-1.4-0.3-1.7,0.7C267.3,713.5,262.9,713.5,258.5,713.5z M261,706.1c16.7,0,30-1.3,43-4.4
		c26.5-6.2,48.7-18.8,63.2-42.7c15.2-25,18.2-51.2,5.6-78.1c-10.6-22.5-28.4-38.3-49.8-50.2c-16.3-9.1-34.4-14.2-51.3-21.9
		c-0.3-0.1-0.7-0.2-1-0.3c-16.4-3.7-32.9-3.3-48.2,3.3c-42.8,18.7-71.2,49.7-78,97.4c-2.1,14.5,0,28.8,6.9,42
		c8.8,16.6,22.4,28.2,38.5,37.3C213,701.5,238.1,706,261,706.1z"/>
	<path id="XMLID_314_" fill="#F8B1B1" d="M261,706.1c-22.9-0.1-48-4.6-71.1-17.7c-16-9.1-29.7-20.7-38.5-37.3c-7-13.2-9-27.5-6.9-42
		c6.8-47.6,35.3-78.6,78-97.4c15.3-6.7,31.8-7,48.2-3.3c0.3,0.1,0.7,0.1,1,0.3c16.9,7.7,35,12.8,51.3,21.9
		c21.4,12,39.3,27.8,49.8,50.2c12.6,26.9,9.5,53.1-5.6,78.1c-14.5,23.8-36.7,36.5-63.2,42.7C291,704.8,277.7,706.1,261,706.1z
		 M309,677.6c3.3,0,6.1,0,8.8,0c7.7-0.1,16.8-6.4,19.6-13.6c1.7-4.4,3.1-8.9,3.5-13.6c0.5-5.5,2.9-9.6,8.7-11.1
		c2.4-0.6,4.8-1.6,7.1-2.6c6.3-2.9,10.3-7.5,11.4-14.5c0.6-4.5,0.4-9,0.4-13.5c0-7.8-2.6-14.2-9-19.2c-6.1-4.7-12.4-9.3-11.2-19
		c1-7.6-3-13.7-9.6-17.8c-5.3-3.4-11.1-4.8-17.4-4.6c-8.8,0.3-15.5-3.2-20.2-10.7c-1.8-2.9-4-5.7-6-8.4
		c-7.7-10.2-22.5-12.7-32.9-5.5c-3.3,2.3-6.9,2.7-10.7,1.7c-7.5-1.9-15.1-2.9-22.9-1.4c-4.8,0.9-8.7,3-11.2,7.2
		c-1.9,3.1-3.7,6.4-5.5,9.6c-2.4,4.2-5.8,6.8-10.9,6.7c-5.5-0.1-10.3,1.9-15,4.5c-5.7,3.1-10.2,9.5-6.5,17.6
		c2.6,5.8,2,10.5-3.3,14.1c-4,2.7-7.8,5.7-11.8,8.4c-13.3,8.8-15.1,23.7-4,35.1c0.6,0.6,1.2,1.1,1.7,1.8c4.4,5.4,8.3,11.1,8.4,18.5
		c0.1,3.4,0.6,6.9,0.8,10.3c0.7,8.9,4.4,15.6,13.2,18.8c3.3,1.2,6.6,1.9,10.1,2c8.6,0.4,17-1.8,25.5-1.4c1.1,0.1,2.3-0.3,3.3,0.7
		c3.9,3.4,8.4,6.1,11.9,10c3.6,4.1,8.3,6.1,13.6,6.7c3,0.3,6,0.5,8.9,1c10.3,1.8,18.8-1.4,25.7-9.3c0.7-0.8,1.4-1.5,2.2-2.2
		c2.9-2.8,6.3-4.5,10.2-5.5C300.4,677,305,677.8,309,677.6z"/>
	<path id="XMLID_296_" fill="#12110F" d="M309,677.6c-4.1,0.3-8.7-0.6-13.3,0.6c-3.9,1-7.3,2.7-10.2,5.5c-0.7,0.7-1.5,1.4-2.2,2.2
		c-6.8,7.8-15.3,11-25.7,9.3c-2.9-0.5-6-0.6-8.9-1c-5.3-0.6-10-2.6-13.6-6.7c-3.5-3.9-8-6.6-11.9-10c-1-0.9-2.2-0.6-3.3-0.7
		c-8.6-0.4-17,1.8-25.5,1.4c-3.5-0.2-6.8-0.8-10.1-2c-8.8-3.2-12.5-9.9-13.2-18.8c-0.3-3.4-0.8-6.9-0.8-10.3c-0.2-7.4-4-13-8.4-18.5
		c-0.5-0.6-1.1-1.2-1.7-1.8c-11.1-11.4-9.3-26.4,4-35.1c4-2.7,7.8-5.7,11.8-8.4c5.2-3.6,5.9-8.2,3.3-14.1
		c-3.7-8.1,0.8-14.5,6.5-17.6c4.7-2.6,9.5-4.6,15-4.5c5.1,0.1,8.4-2.5,10.9-6.7c1.9-3.2,3.6-6.4,5.5-9.6c2.6-4.2,6.5-6.3,11.2-7.2
		c7.8-1.5,15.3-0.5,22.9,1.4c3.7,1,7.4,0.6,10.7-1.7c10.3-7.2,25.2-4.8,32.9,5.5c2.1,2.8,4.2,5.5,6,8.4c4.7,7.5,11.4,11,20.2,10.7
		c6.3-0.2,12.1,1.2,17.4,4.6c6.6,4.2,10.6,10.2,9.6,17.8c-1.2,9.7,5.1,14.3,11.2,19c6.4,5,9,11.4,9,19.2c0,4.5,0.3,9-0.4,13.5
		c-1,7-5.1,11.6-11.4,14.5c-2.3,1-4.7,2-7.1,2.6c-5.8,1.5-8.2,5.6-8.7,11.1c-0.5,4.7-1.8,9.2-3.5,13.6c-2.8,7.3-11.8,13.5-19.6,13.6
		C315.1,677.6,312.3,677.6,309,677.6z M250.9,531.3c-1.5-0.5-3.1-0.8-4.5-1.6c-5.5-3.2-11.2-2.9-17.1-1.8c-2.3,0.5-4.8,0.9-6.3,3.1
		c-1.4,0.8-2.6,1.9-2.5,3.7c-1.8,1.3-2.5,3.3-3.4,5.1c-3.4,6.8-8.1,11.3-16.5,11.1c-4.2-0.1-8.7,0.8-12,4.2l0,0
		c-0.6-0.4-1.1-0.1-1.5,0.4c-2.4,1.1-3.9,3-4.8,5.4c-1.1,3.8,1.9,6.6,2.2,10.1c0.2,1.3,0.3,2.6,0.5,3.9c0.3,4.3-1.3,7.7-4.6,10.6
		c-5.3,4.7-11.5,8-16.9,12.4c-2.8,2.3-4.9,5.1-4.8,9c-1.1,1.3-0.7,2.8-0.8,4.2c0.5,2.5-1.3,5.5,1.5,7.5c0.3,2,2,3,3.4,4.3
		c0.8,0.8,1.6,1.6,2.3,2.5c4.3,5.1,8.1,10.4,9.3,17.3c0.5,2.8-0.5,5.7,0.6,8.4c0.1,0.7,0.2,1.4,0.3,2c0.2,1.2-0.5,2.4,0.3,3.5
		c0.4,0.9-0.1,2.1,0.9,2.7c-0.2,4,1.2,7.2,4.3,9.6c4,3.1,8.5,4.8,13.6,5c8.2,0.4,16.2-0.9,24.4-1.3c3.1-0.1,5.8,0.8,8.2,2.9
		c2.5,2.2,5.2,4.1,7.9,6.1c1,1.5,2.1,2.9,3.8,3.6c2,3,5.2,3.9,8.5,4.6c5.4,1.2,10.9,1.2,16.4,1.5c8.3,0.5,13.3-4.3,18.1-9.9
		c2.2-0.9,3.7-2.6,5.5-4c2.1-0.9,4.2-1.8,6.3-2.7c4.4-0.6,8.8-0.8,13.2-0.8c0.9,0,2.1,0.7,2.7-0.6c5.3,1.2,10.8,1.6,15.3-1.4
		c9.1-6,12-15.4,12.3-25.9c1.1-1,1.3-2.6,2.1-3.8c0.8-1.2,1.5-2.3,2.3-3.5c1.6-0.7,3-2,4.8-2.3c3.1-1.3,6.2-2.3,9.2-3.8
		c4.6-2.2,7.6-5.6,8.3-11c0.7-5.2,0.8-10.4,0.3-15.5c-0.5-4.9-1.7-10.1-7-12.7c-1.2-1.8-2.8-3.1-4.6-4.1c-3.2-3.3-7.2-6-8.1-11
		c-0.1-0.9-0.2-1.8-0.3-2.8c0-1.5,0-3,0-4.5c0.3-7.7-3.5-12.8-10-16.3c-4-2.1-8.1-2.5-12.4-2.2c-5.5,0.4-10.5-1-15-4
		c-2.1-0.8-3.8-2.3-5.5-3.6c-2.1-2.8-4.2-5.5-6.3-8.3c-0.6-1.4-1.4-2.7-2.7-3.6c-3.5-6.9-15.1-11.6-22.6-9.1
		c-4.7,1.6-8.7,5.3-13.4,7.3C254.6,531.4,252.7,531.3,250.9,531.3z"/>
	<path id="XMLID_295_" fill="#621D0C" d="M306.9,548.8c4.6,3,9.5,4.4,15,4c4.3-0.3,8.4,0.1,12.4,2.2c6.6,3.5,10.3,8.6,10,16.3
		c-0.1,1.5,0,3,0,4.5c-21.3-1.7-42.7-2.3-64.1-2.9c-0.8,0-1.9-0.5-2.4,0.7c-9.4-5.3-19-6.6-28.8-1.3c-0.6-0.1-1.1-0.3-1.7-0.3
		c-20.9-0.3-41.8-0.6-62.7-0.9c-0.3-3.5-3.3-6.3-2.2-10.1c6.3-1.2,12.6-2.5,18.9-3.7c18.2-3.3,36.5-6,55-7.2
		c15.8-1,31.6-0.7,47.3-0.7C304.8,549.4,306,549.9,306.9,548.8z"/>
	<path id="XMLID_294_" fill="#621D0C" d="M337.3,646.1c-0.3,10.4-3.2,19.8-12.3,25.9c-4.5,3-10,2.6-15.3,1.4c-3-0.4-5.9-0.9-8.9-1.3
		c-25.3-3.5-50.4-8.3-75.8-11.5c-15.4-1.9-30.9-3.6-46.5-4.5c-1-0.1-2.1-0.6-2.8,0.7c-0.8-1.1-0.2-2.3-0.3-3.5c0.5,0,0.9,0.1,1.4,0
		c22.3-1.8,44.6-4.2,67-5.8c2.8-0.2,5.7,0.4,8.3-1c0.3-0.1,0.7-0.4,1-0.4c6.9,1.3,13.8,1.6,20.7-0.2c1.4,0.7,3,0.3,4.4,0.3
		C297.9,645.6,317.6,646.1,337.3,646.1z"/>
	<path id="XMLID_293_" fill="#621D0C" d="M357.3,593.6c5.3,2.6,6.4,7.8,7,12.7c0.6,5.1,0.5,10.3-0.3,15.5c-0.8,5.4-3.8,8.8-8.3,11
		c-3,1.5-6.1,2.5-9.2,3.8c-0.1-0.9-0.7-1.1-1.4-1.2c-7.2-1-14.3-2-21.5-2.9c-9-1.1-18-2.1-27-3.2c0.4-1,0.8-2.1,1.3-3.1
		c4.9-9.7,5.8-19.5,1.7-29.7c1.3,0,2.5-0.1,3.8-0.1C321.2,594.9,339.2,594.1,357.3,593.6z"/>
	<path id="XMLID_292_" fill="#621D0C" d="M158.8,606.9c-0.1-3.9,2-6.8,4.8-9c5.4-4.4,11.6-7.7,16.9-12.4c3.3-2.9,4.9-6.3,4.6-10.6
		c19.6,0,39.2,0.1,58.8,0.8c-8,6.4-13.5,14.8-18.2,23.7c-8.4,1-16.7,2-25.1,2.9C186.7,603.9,172.8,605.4,158.8,606.9z"/>
	<path id="XMLID_291_" fill="#621D0C" d="M175.2,651.1c-1.1-2.7-0.1-5.6-0.6-8.4c-1.2-6.8-5.1-12.1-9.3-17.3
		c-0.7-0.9-1.5-1.7-2.3-2.5c12.9,0.7,25.7,1.2,38.6,2.1c7,0.5,14,0.6,20.9,1.8c4.5,7.9,11.3,13.1,19.5,16.6c-1.5,0.2-3,0.5-4.4,0.6
		c-20.1,1.7-40.2,3.4-60.3,5C175.7,649.2,175.1,649.7,175.2,651.1z"/>
	<path id="XMLID_290_" fill="#621D0C" d="M235.2,681.7c-2.6-2-5.4-3.8-7.9-6.1c-2.4-2.2-5.1-3.1-8.2-2.9c-8.1,0.4-16.2,1.7-24.4,1.3
		c-5.1-0.2-9.6-1.9-13.6-5c-3.1-2.4-4.5-5.7-4.3-9.6c12.3,0.2,24.5,1.8,36.7,3.1c17.1,1.9,34.1,4.6,51.1,7.4
		c9.7,1.6,19.5,3.3,29.2,4.9c-2.1,0.9-4.2,1.8-6.3,2.7c-3.9-0.1-7.8,0.1-11.7,0.3C262.2,678.6,248.7,680.3,235.2,681.7z"/>
	<path id="XMLID_289_" fill="#621D0C" d="M295.1,536.9c2.1,2.8,4.2,5.5,6.3,8.3c-6.6,0-13.2,0-19.7,0c-19,0-38,1.3-56.9,4
		c-12.1,1.7-24,4.1-36.1,6c3.3-3.4,7.8-4.3,12-4.2c8.5,0.2,13.1-4.3,16.5-11.1c0.9-1.8,1.6-3.8,3.4-5.1c11.4-0.3,22.8,0,34.2,0.4
		C268.2,535.6,281.7,536.3,295.1,536.9z"/>
	<path id="XMLID_288_" fill="#621D0C" d="M159.5,618.6c-2.7-2.1-1-5-1.5-7.5c6.4-0.1,12.8-1.2,19.2-1.9c15.5-1.7,31-3.6,46.5-5.4
		c-0.3,1.2-0.5,2.4-0.9,3.6c-1.4,5-2.6,10.1-1.2,15.3c-8.5-1.2-17.1-1.5-25.7-2.1C183.8,619.9,171.7,619.3,159.5,618.6z"/>
	<path id="XMLID_287_" fill="#621D0C" d="M344.6,578.5c0.8,5,4.8,7.7,8.1,11c-1.5,0.2-3,0.4-4.5,0.5c-15.1,0.8-30.2,1.5-45.3,2.4
		c-1.7,0.1-3.7-0.4-5.1,1.2c-1.1-1.8-2.2-3.7-3.4-5.5c-2.9-4.3-6.6-7.7-10.4-11.2c17.1,0,34.1,1.1,51.2,1.9
		C338.4,579,341.6,580.1,344.6,578.5z"/>
	<path id="XMLID_286_" fill="#F4F1EF" d="M188.7,555.1c12.1-1.8,24-4.2,36.1-6c18.9-2.7,37.8-4,56.9-4c6.6,0,13.2,0,19.7,0
		c1.7,1.3,3.4,2.8,5.5,3.6c-0.9,1.2-2.1,0.6-3.2,0.6c-15.8,0.1-31.6-0.2-47.3,0.7c-18.5,1.1-36.8,3.8-55,7.2
		c-6.3,1.2-12.6,2.4-18.9,3.7c0.9-2.4,2.3-4.4,4.8-5.4C187.7,555.6,188.3,555.6,188.7,555.1L188.7,555.1z"/>
	<path id="XMLID_285_" fill="#F4F1EF" d="M293.8,674.8c-9.7-1.6-19.5-3.3-29.2-4.9c-17-2.8-34-5.5-51.1-7.4
		c-12.2-1.3-24.4-3-36.7-3.1c-1-0.7-0.6-1.8-1-2.7c0.7-1.2,1.8-0.7,2.8-0.7c15.5,0.9,31,2.6,46.5,4.5c25.4,3.2,50.5,8,75.8,11.5
		c3,0.4,5.9,0.9,8.9,1.3c-0.6,1.3-1.8,0.6-2.7,0.6C302.6,674,298.2,674.2,293.8,674.8z"/>
	<path id="XMLID_284_" fill="#621D0C" d="M341.6,638.8c-0.8,1.2-1.5,2.3-2.3,3.5c-1.4-0.1-2.8-0.2-4.1-0.2c-17.3,0-34.5,0-51.8,0
		c3.7-2.5,7-5.6,9.9-9.1C309.4,634.6,325.6,636.2,341.6,638.8z"/>
	<path id="XMLID_283_" fill="#F4F1EF" d="M175.2,651.1c0-1.4,0.5-1.9,2-2c20.1-1.6,40.2-3.3,60.3-5c1.5-0.1,3-0.4,4.4-0.6
		c3.5,0.7,6.9,1.7,10.3,2.9c-2.6,1.4-5.6,0.8-8.3,1c-22.4,1.6-44.7,3.9-67,5.8c-0.5,0-0.9,0-1.4,0
		C175.4,652.5,175.3,651.8,175.2,651.1z"/>
	<path id="XMLID_282_" fill="#F4F1EF" d="M223.7,603.9c-15.5,1.8-31,3.6-46.5,5.4c-6.4,0.7-12.7,1.8-19.2,1.9c0.1-1.4-0.3-3,0.8-4.2
		c14-1.5,27.9-3,41.9-4.6c8.4-0.9,16.7-2,25.1-2.9C225.4,601.1,224.9,602.6,223.7,603.9z"/>
	<path id="XMLID_281_" fill="#621D0C" d="M282,681.5c-4.8,5.6-9.8,10.4-18.1,9.9c-5.5-0.3-11-0.4-16.4-1.5c-3.3-0.7-6.5-1.6-8.5-4.6
		c3.2-0.4,6.4-0.9,9.6-1.2C259.7,682.9,270.8,681.5,282,681.5z"/>
	<path id="XMLID_280_" fill="#F4F1EF" d="M295.1,536.9c-13.5-0.6-26.9-1.3-40.4-1.8c-11.4-0.4-22.8-0.7-34.2-0.4
		c-0.1-1.8,1.1-2.9,2.5-3.7c9.3,0.1,18.6,0.2,27.8,0.3c1.8,0,3.7,0.1,5.5,0.1c12,0.6,24,1.2,36.1,1.8
		C293.7,534.2,294.6,535.4,295.1,536.9z"/>
	<path id="XMLID_279_" fill="#F4F1EF" d="M159.5,618.6c12.2,0.7,24.3,1.3,36.5,2.1c8.6,0.6,17.2,0.9,25.7,2.1
		c0.1,1.4,1.2,2.6,0.7,4.1c-6.9-1.2-13.9-1.3-20.9-1.8c-12.8-0.9-25.7-1.4-38.6-2.1C161.6,621.6,159.9,620.7,159.5,618.6z"/>
	<path id="XMLID_278_" fill="#F4F1EF" d="M344.6,578.5c-3.1,1.6-6.2,0.5-9.4,0.3c-17-0.8-34.1-1.8-51.2-1.9
		c-2.1-1.1-4.2-2.3-6.3-3.4c0.6-1.1,1.6-0.7,2.4-0.7c21.4,0.6,42.7,1.1,64.1,2.9C344.4,576.6,344.5,577.6,344.6,578.5z"/>
	<path id="XMLID_277_" fill="#F4F1EF" d="M243.9,575.7c-19.6-0.7-39.2-0.8-58.8-0.8c-0.2-1.3-0.3-2.6-0.5-3.9
		c20.9,0.3,41.8,0.6,62.7,0.9c0.6,0,1.1,0.2,1.7,0.3C247.3,573.4,245.6,574.6,243.9,575.7z"/>
	<path id="XMLID_276_" fill="#F4F1EF" d="M283.4,642.1c17.3,0,34.5,0,51.8,0c1.4,0,2.8,0.1,4.1,0.2c-0.7,1.2-0.9,2.8-2.1,3.8
		c-19.7,0-39.4-0.5-59.1,0c-1.5,0-3,0.4-4.4-0.3C277.3,645.3,280.3,643.5,283.4,642.1z"/>
	<path id="XMLID_275_" fill="#F4F1EF" d="M297.9,593.6c1.4-1.7,3.4-1.1,5.1-1.2c15.1-0.8,30.2-1.6,45.3-2.4c1.5-0.1,3-0.3,4.5-0.5
		c1.8,1.1,3.4,2.3,4.6,4.1c-18,0.5-36.1,1.4-54.1,2.7c-1.3,0.1-2.5,0.1-3.8,0.1C298.9,595.5,298.4,594.5,297.9,593.6z"/>
	<path id="XMLID_274_" fill="#621D0C" d="M292.5,533.3c-12-0.6-24-1.2-36.1-1.8c4.7-2,8.7-5.7,13.4-7.3
		C277.4,521.6,289,526.3,292.5,533.3z"/>
	<path id="XMLID_273_" fill="#F4F1EF" d="M341.6,638.8c-16-2.6-32.2-4.2-48.3-5.8c1-1.3,1.5-3,3.2-3.7c9,1.1,18,2.1,27,3.2
		c7.2,0.9,14.3,1.9,21.5,2.9c0.7,0.1,1.4,0.3,1.4,1.2C344.6,636.8,343.3,638.1,341.6,638.8z"/>
	<path id="XMLID_272_" fill="#F4F1EF" d="M282,681.5c-11.2,0.1-22.3,1.5-33.4,2.6c-3.2,0.3-6.4,0.8-9.6,1.2
		c-1.7-0.7-2.9-2.1-3.8-3.6c13.5-1.4,27-3.1,40.6-3.9c3.9-0.2,7.8-0.5,11.7-0.3C285.7,678.9,284.2,680.6,282,681.5z"/>
	<path id="XMLID_271_" fill="#621D0C" d="M250.9,531.3c-9.3-0.1-18.6-0.2-27.8-0.3c1.5-2.2,4-2.6,6.3-3.1c5.8-1.2,11.6-1.4,17.1,1.8
		C247.8,530.5,249.4,530.8,250.9,531.3z"/>
	<path id="XMLID_270_" fill="#764D3F" d="M188.7,555.1c-0.4,0.5-1,0.5-1.5,0.4C187.6,555,188.1,554.8,188.7,555.1z"/>
	<path id="XMLID_266_" fill="#12110F" d="M296.4,629.2c-1.6,0.8-2.2,2.4-3.2,3.7c-2.8,3.5-6.1,6.5-9.9,9.1c-3.1,1.4-6.1,3.3-9.6,3.7
		c-6.9,1.8-13.8,1.5-20.7,0.2c-0.3-0.1-0.6,0.2-1,0.4c-3.4-1.2-6.8-2.2-10.3-2.9c-8.2-3.5-15-8.7-19.5-16.6c0.5-1.5-0.6-2.7-0.7-4.1
		c-1.5-5.3-0.2-10.3,1.2-15.3c0.3-1.2,0.6-2.4,0.9-3.6c1.1-1.3,1.7-2.8,2-4.4c4.7-8.9,10.2-17.3,18.2-23.7c1.7-1.2,3.4-2.3,5.1-3.5
		c9.9-5.3,19.4-4,28.8,1.3c2.1,1.1,4.2,2.3,6.3,3.4c3.7,3.5,7.5,6.9,10.4,11.2c1.2,1.8,2.2,3.6,3.4,5.5c0.5,0.9,1,1.9,1.6,2.8
		c4.1,10.2,3.2,20-1.7,29.7C297.2,627.1,296.9,628.2,296.4,629.2z M263.3,640.1c1.4,0,2.8,0,4.2,0c18.7-0.7,33.5-22,27.2-39.6
		c-4-11.1-12.1-18.7-22.6-24.1c-8.7-4.5-16.7-3.1-23.9,3c-10.3,8.7-17.1,19.8-19.9,33.1c-1.6,7.6,0.4,14.3,6.9,19.3
		C243.5,638,253.2,639.9,263.3,640.1z"/>
	<path id="XMLID_265_" fill="#FDFDFC" d="M263.3,640.1c-10.2-0.2-19.8-2.1-28.2-8.4c-6.5-5-8.5-11.7-6.9-19.3
		c2.8-13.2,9.6-24.3,19.9-33.1c7.2-6.1,15.2-7.5,23.9-3c10.4,5.4,18.5,13,22.6,24.1c6.4,17.6-8.5,39-27.2,39.6
		C266.1,640.1,264.7,640.1,263.3,640.1z"/>
</g>
<g id="XMLID_600_">
	<path id="XMLID_305_" fill="#14110E" d="M1252.6,713.5c-1-1.1-2.4-1.1-3.7-1.3c-13-1.5-26.1-2.1-39.3-2.2
		c-23.1-0.2-46.2,0.2-69.2-0.8c-35.4-1.6-70.8-0.8-106.2-1.3c-2.9,0-5.8-0.3-8.6-0.6c-1.8-0.2-3-0.8-1.9-3.1
		c1.2-2.7,0.3-5.7,0.7-8.5c2.4-19.4,2.2-38.9-0.7-58.2c-0.7-4.5,0.4-8,4-11.2c14.7-13.5,32.1-22.6,49.9-31
		c27.5-13,55.9-23.9,84.5-34c3.8-1.3,7.5-3,11.4-3.8c2.2-0.4,2.8-1.2,2-3.4c-1.8-4.8-3.2-9.8-4.8-14.7c-0.3-0.9-0.8-1.7-0.9-2.6
		c-0.2-1-1-2.5,0.3-3.1c1.2-0.4,1.5,1.1,2,2c2.7,5.7,5.1,11.6,6.8,17.6c0.5,1.8,1.2,2.6,3.3,2.3c9.7-1.2,18.8,0.9,27.3,5.4
		c13.5,7,25.6,15.9,36.9,25.9c15,13.2,17.9,30.1,15.1,48.8c-0.4,2.7-0.1,5.3,0,7.9c0.2,15.3,0.6,30.7-1.1,46
		c-0.8,6.7-2.1,13.4-2,20.3c0,2.5-1.9,3-3.5,3.8C1254,713.5,1253.3,713.5,1252.6,713.5z M1254.7,637.2c-29.9-0.4-59.8,0.1-89.7-0.4
		c-45.1-0.7-90.2-2.1-135.3-3.3c-2-0.1-2.4,0.6-2.1,2.3c1.1,6.5,2.4,12.9,2.9,19.5c0.1,1.2,0.5,2,2.1,2.1c12.1,1,24.2,1.9,36.3,2
		c39,0.2,78,0.1,117,0c2,0,3.9,0,5.9-0.1c20.6-1.7,41.3-1,61.9-0.5c2.2,0.1,2.8-0.5,2.8-2.6c0.2-5.6,0.5-11.3,0.8-16.9
		c0.1-0.9-0.4-1.2-1.1-1.4C1256,636.8,1255.8,636.1,1254.7,637.2z M1205.9,632.4c9.3,0,18.7,0,28,0c6.8,0,13.6,0,20.4,0.2
		c1.8,0,2.3-0.3,2.1-2.3c-0.3-3-0.3-6-0.3-9c0.1-11.6-4.2-21.3-12.5-29.3c-10.2-9.9-21.7-18.2-34-25.4c-7.2-4.2-14.9-6.7-23.1-7.4
		c-2.5-0.2-4.7,0.8-5.1,3.2c-0.4,2.3,0.2,4.8,0.3,7.2c0.1,1.2,1,1,1.7,1.2c4.2,0.9,8.6,1.5,12.3,4.1c2.9,2,5.1,4.4,5.6,7.9
		c1.8,15.8-11.9,30.8-30.3,24.3c-5.6-2-8.7-6.1-9.3-12.1c-0.2-2.3,0-4.6,0.2-6.9c1-8.8,6.3-15.9,13.2-17.2c2.7-0.5,3.2-1.4,2.8-3.7
		c-0.2-1-0.2-2.1-0.1-3.1c0-1.5-0.5-1.9-2.1-1.8c-2.5,0.2-4.6,1.4-6.8,2.2c-29.6,10.4-59,21.3-87.4,34.6
		c-16.8,7.8-33.4,16-47.8,28.1c-0.6,0.5-1.9,0.8-1.6,2c0.3,1.1,1.4,0.6,2.1,0.6c22.2-0.6,44.3,0.7,66.4,1
		C1135.7,631.3,1170.8,631.8,1205.9,632.4z M1077.3,703.2c31.1-1.2,63.3,1.7,95.6,1.4c13.1-0.1,26.3-0.4,39.5,0.5
		c13.1,0.9,26.4-1.1,39.2,3.1c1.4,0.5,1.6-0.2,1.5-1.3c-0.5-5.9,0.8-11.7,1.5-17.5c0.9-7.6,0.7-7.6-7.1-7.6
		c-40.9,0-81.7,0-122.6-0.7c-29.9-0.5-59.8,0.7-89.7,0.7c-0.5,0-0.9,0.1-1.4,0c-1.7-0.1-2.4,0.6-2.5,2.4c-0.3,5.4-0.6,10.8-1.1,16.2
		c-0.2,2.3,0.5,2.9,2.8,2.8C1047.4,703.1,1061.7,703.2,1077.3,703.2z M1037.6,678.2c13.6-0.5,25.7-1.3,37.7-1.3
		c48.3,0.1,96.7-0.7,145,0.6c11.2,0.3,22.4-0.6,33.5,0.5c1.3,0.1,1.5-0.7,1.6-1.7c0.4-2.7,0.7-5.5,0.6-8.3c-0.1-4.8-0.2-5-5-5.1
		c-0.9,0-1.8,0-2.8,0c-22.6-0.6-45.2,1.3-67.7,1.3c-41.4,0-82.8,1-124.2-0.6c-6.9-0.3-13.8-0.8-20.6-2c-4.8-0.8-4.7-0.9-4.2,4
		c0.2,1.7,0.1,3.5,0.1,5.2C1031.7,678.2,1031.7,678.2,1037.6,678.2z M1179.9,603.5c7.5,0.1,13.9-4.4,15.9-11.9
		c2.5-9.4,0.5-11.4-6.5-14.6c-2.1-1-4.4-1.4-6.5-2.1c-1.7-0.5-2.4,1.9-3.2,1.2c-3.8-3.5-6.4-0.1-8.3,2c-4.6,5.1-5.6,11.5-4.1,18.1
		C1168.4,601.2,1172.7,603.4,1179.9,603.5z"/>
	<path id="XMLID_303_" fill="#E76B6A" d="M1205.9,632.4c-35.1-0.5-70.2-1.1-105.2-1.5c-22.1-0.3-44.3-1.6-66.4-1
		c-0.7,0-1.8,0.5-2.1-0.6c-0.3-1.2,0.9-1.4,1.6-2c14.4-12,31-20.2,47.8-28.1c28.5-13.2,57.8-24.2,87.4-34.6c2.3-0.8,4.3-2,6.8-2.2
		c1.6-0.1,2.1,0.3,2.1,1.8c0,1,0,2.1,0.1,3.1c0.4,2.3-0.1,3.3-2.8,3.7c-6.9,1.2-12.2,8.3-13.2,17.2c-0.3,2.3-0.5,4.6-0.2,6.9
		c0.6,6,3.7,10.2,9.3,12.1c18.4,6.4,32.2-8.5,30.3-24.3c-0.4-3.6-2.7-6-5.6-7.9c-3.7-2.6-8.1-3.2-12.3-4.1c-0.8-0.2-1.7,0-1.7-1.2
		c-0.1-2.4-0.7-4.9-0.3-7.2c0.4-2.5,2.6-3.4,5.1-3.2c8.3,0.7,16,3.2,23.1,7.4c12.3,7.2,23.8,15.4,34,25.4c8.3,8,12.6,17.7,12.5,29.3
		c0,3-0.1,6,0.3,9c0.2,1.9-0.3,2.3-2.1,2.3c-6.8-0.1-13.6-0.1-20.4-0.2C1224.6,632.3,1215.2,632.4,1205.9,632.4z"/>
	<path id="XMLID_302_" fill="#621D0C" d="M1256.2,637.9c0.7,0.2,1.2,0.4,1.1,1.4c-0.3,5.6-0.6,11.3-0.8,16.9c-0.1,2-0.6,2.6-2.8,2.6
		c-20.6-0.5-41.3-1.1-61.9,0.5c-2,0.2-3.9,0.1-5.9,0.1c-39,0-78,0.1-117,0c-12.1-0.1-24.2-1-36.3-2c-1.6-0.1-2-0.9-2.1-2.1
		c-0.5-6.6-1.8-13-2.9-19.5c-0.3-1.7,0.1-2.3,2.1-2.3c45.1,1.2,90.2,2.5,135.3,3.3c29.9,0.5,59.8,0,89.7,0.4
		C1254.8,638.2,1255.6,637.9,1256.2,637.9z"/>
	<path id="XMLID_301_" fill="#621D0C" d="M1077.3,703.2c-15.6,0-29.9-0.1-44.2,0.1c-2.3,0-3-0.6-2.8-2.8c0.5-5.4,0.8-10.8,1.1-16.2
		c0.1-1.8,0.8-2.5,2.5-2.4c0.5,0,0.9,0,1.4,0c29.9,0,59.8-1.2,89.7-0.7c40.9,0.7,81.7,0.7,122.6,0.7c7.9,0,8,0,7.1,7.6
		c-0.7,5.8-1.9,11.6-1.5,17.5c0.1,1.1-0.1,1.8-1.5,1.3c-12.8-4.2-26.1-2.3-39.2-3.1c-13.1-0.9-26.3-0.6-39.5-0.5
		C1140.7,704.9,1108.4,702,1077.3,703.2z"/>
	<path id="XMLID_300_" fill="#9C4C2E" d="M1037.6,678.2c-5.9,0-5.9,0-6-7.3c0-1.7,0.1-3.5-0.1-5.2c-0.5-4.8-0.5-4.8,4.2-4
		c6.8,1.2,13.7,1.7,20.6,2c41.4,1.5,82.8,0.5,124.2,0.6c22.6,0,45.1-1.8,67.7-1.3c0.9,0,1.8,0,2.8,0c4.8,0.1,5,0.3,5,5.1
		c0,2.8-0.3,5.5-0.6,8.3c-0.1,1-0.3,1.8-1.6,1.7c-11.2-1.1-22.3-0.2-33.5-0.5c-48.3-1.3-96.7-0.5-145-0.6
		C1063.3,676.8,1051.2,677.7,1037.6,678.2z"/>
	<path id="XMLID_299_" fill="#BF202A" d="M1179.9,603.5c-7.2-0.1-11.5-2.3-12.6-7.3c-1.5-6.6-0.5-13,4.1-18.1c1.9-2.1,4.4-5.5,8.3-2
		c0.8,0.7,1.5-1.7,3.2-1.2c2.2,0.7,4.5,1.1,6.5,2.1c6.9,3.3,8.9,5.2,6.5,14.6C1193.8,599.1,1187.3,603.5,1179.9,603.5z"/>
	<path id="XMLID_298_" fill="#6E6151" d="M1256.2,637.9c-0.6,0-1.3,0.3-1.4-0.7C1255.8,636.1,1256,636.8,1256.2,637.9z"/>
</g>
<g id="XMLID_267_">
	<path id="XMLID_559_" fill="#1D1614" d="M674.6,647.5c-2.8,0.2-3.5,1.6-3.6,4.4c-0.3,14.9-4.1,29.1-9.2,43
		c-1.4,3.9-4.1,5.3-7.7,6.3c-10,2.9-20.6,2.4-30.4,5.9c-10.3,3.6-21.1,3.3-31.7,4.7c-18.8,2.5-37.8,1.4-56.7,1.3
		c-11.9,0-23.4-3.6-34.9-6.3c-6.1-1.4-11.9-3.3-17.5-6.1c-0.5-0.3-1.2-0.7-1.6-0.6c-3.2,0.9-3.8-1.2-4.4-3.5
		c-3.3-13.1-6-26.3-7.4-39.7c-0.2-2.2-0.7-3.2-3.2-3.4c-2.9-0.2-4.3-2.4-4.7-5.2c-1.2-7.5-1-15-0.4-22.4c1-11.7,2.9-23.2,7.2-34.3
		c2.4-6.2,6.4-10.2,12.5-12.4c8.2-3,16.5-5.7,25.2-7.2c2.5-0.5,4.9-1.1,7.4-1.6c1.4-0.3,1.7-0.8,1.4-2.4c-1-6.2,0.3-11.9,4.6-16.7
		c1.3-1.4,1-1.9-0.4-2.7c-2.3-1.2-3.7-3.4-4.8-5.8c-0.6-1.3-0.9-2.7,0-3.9c1-1.2,2.4-1.1,3.8-0.8c5.2,1.1,5.4,0.9,4.5-4.5
		c-0.2-1.5-1-3.1,0.9-3.9c1.7-0.7,2.7,0.8,3.7,1.9c1.2,1.2,2.3,2.5,3.6,3.9c0.8-1.6,1.6-2.9,2.2-4.2c0.5-1,1-1.9,2.3-1.7
		c1.3,0.1,1.7,1.1,1.9,2.2c0.4,3.1,1.1,6.2,1,9.2c-0.1,1.9,0.6,1.8,1.8,1.7c0.1,0,0.2,0,0.3,0c9.4-3.4,14.8,2.1,19.5,8.9
		c1.2,1.8,2.4,3.6,3.5,5.4c1.2-0.3,0.9-1.1,1-1.7c0.3-5.6,2.6-10.2,6.9-13.8c1.3-1.1,1.8-1.6,0-2.9c-2.4-1.6-3.5-4.3-4-7.1
		c-0.5-3,1.1-4.3,4.1-3.4c0.1,0,0.2,0.1,0.3,0.1c1.7,0.1,3.3,2.7,4.7,1.2c1-1.1,0.5-3.5,0.6-5.3c0.1-1.2-0.3-2.7,1.2-3.3
		c1.6-0.6,2.5,0.6,3.4,1.8c1,1.5,2,3,3.1,4.6c1.6-1,2.1-2.6,3.1-3.8c0.7-0.8,1.4-1.7,2.6-1.2c1,0.4,1.3,1.2,1.3,2.2
		c0,3.1,0.4,6.3-0.3,9.3c-0.6,2.5,0.6,2.4,1.9,2.1c9.4-1.7,14,4,17.6,11.3c2.5,5.1,4.5,10.4,4.8,16.1c0.1,2.2,0.9,2.8,3.2,2.8
		c10.7-0.3,21,2.4,31.1,5.5c5.8,1.8,9.5,6.6,14.2,10.1c6.4,4.8,8.7,11.2,8.8,18.6c0.2,9.9,0,19.8,0.1,29.8c0,3.1,0.1,6.3,1.4,9.2
		C674.6,642,674.6,644.7,674.6,647.5z M519.4,543.7l0-0.1L519.4,543.7c1.7,1.7,3.4,4,6.2,2.3c2.9-1.8,6-2.9,9.4-3.3
		c-1.4-2.9-1.6-3.2-2.2-2.6c-2.4,2-3.9,0.2-5.6-1.3c-0.7,5.7-1.2,6.1-6.8,4.9C520.1,543.6,519.8,543.7,519.4,543.7z M568.1,571.3
		c0.6,6.9,1.3,13.7,1.8,20.6c0.3,4.1-1.2,5.7-5.3,5.8c-4.5,0.1-9,0.1-13.4-0.8c-14.1-2.8-26.1-8.9-33.9-21.6c-0.9-1.5-2-2-3.7-1.5
		c-10.9,2.7-22.1,4.8-32.4,9.5c-3.9,1.8-6.9,4.3-8.5,8.6c-5.7,16.3-8.5,33-7.9,50.2c0.1,2.8-0.7,6.4,2.7,7.9
		c3.6,1.5,5.5-1.7,7.4-3.8c4.5-5,10-7,16.6-6.9c2.9,0,4.8,1.1,6.1,3.6c2.1,3.8,3.9,7.8,5.5,11.9c1.8,4.7,5.4,5.4,9.1,1.9
		c1.7-1.6,3.2-3.3,5-4.8c7.1-6.1,20.3-3.3,22.8,6.8c2.3,9.7,5.8,19.3,14.2,25.9c2.1,1.6,4.1,4,7,2.9c2.7-1.1,2.5-4.2,2.7-6.6
		c0.7-8.1,1.5-16.3,2.8-24.3c0.9-5.6,3.6-9.6,9.2-11.4c4.6-1.4,7.2-0.2,9.2,4.1c1.7,3.5,1.7,7.4,2.3,11.1c0.1,0.9-0.2,2.1,1,2.3
		c1.3,0.2,1.7-0.9,1.9-2c0.2-0.7,0.4-1.3,0.5-2c0.6-3.6,1.6-6.6,5.8-7.6c4.5-1.1,8.1-0.1,11,3.6c2,2.6,4.1,5,6.3,7.4
		c3.1,3.3,5.9,3,8.5-0.7c0.7-0.9,1.3-1.9,1.7-3c2.6-7.1,8.3-11.6,14.1-15.8c5.8-4.2,12.4-2.2,15.7,4.1c0.2,0.3,0.3,0.6,0.5,0.9
		c1.7,3.3,3.1,3.6,6.1,1.4c2.1-1.6,4.1-3.7,6.5-4.5c3.1-1,3.2-2.9,2.8-5.3c-0.8-4.8-1.2-9.6-1.1-14.4c0-8.7,0-17.3-0.1-26
		c0-3.2-0.2-6.8-2.3-9.2c-3.5-3.9-7.5-7.5-11.4-11c-3.5-3.1-8-3.9-12.4-5c-7.6-1.9-15.2-3.5-23-4.3c-1.6-0.2-2.8,0-2.9,2.2
		c-0.3,5.4-1.2,10.8-1.1,16.2c0.1,6-2.8,6.8-7.6,6.4c-4.5-0.4-8.8-1.7-13-3.2C583.9,586.9,575.1,580.5,568.1,571.3z M664.8,651.5
		c-0.8,0.3-1.1,0.4-1.4,0.6c-6.4,4.4-9.8,3.6-13.4-3.4c-2.1-4.1-3.8-5-7.8-3.8c-1.7,0.5-3,1.6-4.3,2.7c-5,4.2-8.8,9.2-11.8,15.1
		c-3.7,7.1-10.5,7.4-15.7,1.2c-2.2-2.6-4.3-5.4-6.5-8.1c-1.6-2-3.6-2.1-5.9-1.7c-2.3,0.4-3.3,1.9-3.6,4.1c-0.2,1.3-0.5,2.5-0.8,3.7
		c-1,3.3-3.2,4.8-6.4,4.4c-3.4-0.4-3.7-3-3.9-5.6c-0.2-3.2-0.4-6.4-1.4-9.5c-1-3.2-2.7-3.7-5.7-2.7c-4.9,1.6-5.4,5.8-6.3,9.8
		c-1.9,8.7-1.7,17.7-3.2,26.4c-1,6.2-6.9,8.9-11.9,5.2c-6.1-4.5-11.8-9.7-14.4-17.3c-1.5-4.5-3.3-8.8-4.4-13.4
		c-2-7.9-11.6-10.4-17.4-4.5c-1.8,1.8-3.4,3.8-5.2,5.5c-4.4,3.9-11.1,2.5-13.4-2.9c-1.2-2.7-2.1-5.6-3.3-8.3
		c-3.2-7.2-4.2-7.6-11.8-5.8c-4.9,1.2-9.9,7.3-9.4,11.9c1.2,13.1,4.3,25.9,6.4,38.8c0.2,1.4,1.1,2.1,2.4,2.6
		c15.3,6,31.3,9.7,47.6,10.9c19.2,1.5,38.5,1.6,57.7-0.6c8.3-1,17-0.4,25-2.7c12.7-3.7,25.8-4.7,38.6-7.6c2-0.5,3-1.3,3.5-3.2
		c1.3-4.8,2.9-9.4,4.1-14.2C663,670.3,665.5,661.4,664.8,651.5z M609.3,589.8c0.5-7.2,1.3-14.3,1.5-21.5c0.2-9.3-2.3-18-7.8-25.7
		c-1.5-2.1-3.3-4.1-6.2-3.5c-2.3,0.5-4.6,0.4-6.9,0.1c-7.1-1-12.7,2.2-17.2,7c-5.4,5.7-5.2,14.5,0,22.1
		C581.6,581.2,594.8,586.6,609.3,589.8z M519.3,566.6c0,2.9,2.1,7.4,5.7,11.2c10.2,11,23.5,14.3,37.7,15.6c1.9,0.2,1.8-0.9,1.6-2.1
		c-0.9-5.1-0.9-10.3-1.3-15.5c-0.9-10.6-4.4-20-11.7-27.8c-1.8-1.9-3.8-3.7-6.6-2.9c-2.8,0.9-5.6,1.1-8.5,1.3
		C527.7,547,519.4,555.7,519.3,566.6z M588.8,535.2c-1.7-1.1-1.1-3.6-2.6-2.9c-3,1.3-4-0.7-5.5-2.4c-0.9,5.8-1.8,6.2-8.5,3.7
		c1.9,2.4,3.3,4.6,6.2,3.3C581.4,535.6,584.5,535,588.8,535.2z"/>
	<path id="XMLID_556_" fill="#9C4C2E" d="M568.1,571.3c7,9.2,15.8,15.6,26.5,19.5c4.2,1.6,8.6,2.8,13,3.2c4.8,0.5,7.8-0.4,7.6-6.4
		c-0.1-5.4,0.8-10.8,1.1-16.2c0.1-2.2,1.3-2.4,2.9-2.2c7.8,0.7,15.4,2.3,23,4.3c4.3,1.1,8.9,1.9,12.4,5c3.9,3.5,7.9,7,11.4,11
		c2.2,2.4,2.3,6,2.3,9.2c0.1,8.7,0.1,17.3,0.1,26c0,4.9,0.4,9.7,1.1,14.4c0.4,2.4,0.3,4.2-2.8,5.3c-2.4,0.8-4.3,2.9-6.5,4.5
		c-3.1,2.2-4.5,1.9-6.1-1.4c-0.2-0.3-0.3-0.6-0.5-0.9c-3.3-6.3-9.9-8.4-15.7-4.1c-5.7,4.2-11.4,8.7-14.1,15.8c-0.4,1.1-1,2.1-1.7,3
		c-2.6,3.7-5.5,3.9-8.5,0.7c-2.2-2.4-4.3-4.8-6.3-7.4c-2.9-3.8-6.5-4.7-11-3.6c-4.2,1-5.2,4.1-5.8,7.6c-0.1,0.7-0.3,1.3-0.5,2
		c-0.3,1-0.6,2.2-1.9,2c-1.2-0.2-0.9-1.4-1-2.3c-0.5-3.7-0.6-7.6-2.3-11.1c-2-4.3-4.6-5.5-9.2-4.1c-5.6,1.7-8.3,5.8-9.2,11.4
		c-1.3,8.1-2.1,16.2-2.8,24.3c-0.2,2.5,0,5.6-2.7,6.6c-2.8,1.1-4.9-1.3-7-2.9c-8.4-6.6-11.9-16.2-14.2-25.9
		c-2.4-10.2-15.7-12.9-22.8-6.8c-1.7,1.5-3.3,3.2-5,4.8c-3.7,3.5-7.3,2.8-9.1-1.9c-1.6-4.1-3.3-8.1-5.5-11.9
		c-1.4-2.5-3.2-3.6-6.1-3.6c-6.6-0.1-12.1,1.9-16.6,6.9c-1.9,2.1-3.8,5.4-7.4,3.8c-3.4-1.5-2.6-5.1-2.7-7.9
		c-0.6-17.2,2.2-33.9,7.9-50.2c1.5-4.3,4.6-6.8,8.5-8.6c10.3-4.7,21.5-6.8,32.4-9.5c1.7-0.4,2.8,0,3.7,1.5
		c7.7,12.7,19.7,18.8,33.9,21.6c4.4,0.9,8.9,0.9,13.4,0.8c4.1-0.1,5.6-1.7,5.3-5.8C569.4,585,568.7,578.1,568.1,571.3z M658.9,593.7
		c-4.7-0.6-8.5,0.6-12.2,2.1c-6.9,2.8-13.7,6.1-20.9,8.1c-14.3,4-29.1,4.8-43.8,5.4c-18.7,0.8-37.4,0.9-56,0
		c-5.6-0.3-11.3-0.5-16.8-1.7c-7.7-1.7-15.1-4.1-22.2-7.6c-0.8-0.4-1.9-1.6-2.7-0.2c-0.6,1.2,0.6,1.8,1.4,2.4
		c0.6,0.5,1.4,0.9,2.1,1.2c6,3.2,12.4,5.6,19,7.1c13,3,26.3,2.9,39.5,3.3c18.3,0.4,36.6-0.2,54.9-1.8c14.5-1.3,28.4-4.2,41.3-11.3
		C647.6,598,652.6,595.2,658.9,593.7z"/>
	<path id="XMLID_555_" fill="#FBE0C4" d="M664.8,651.5c0.7,9.9-1.8,18.9-4.2,27.9c-1.2,4.8-2.8,9.5-4.1,14.2
		c-0.5,1.9-1.5,2.7-3.5,3.2c-12.8,2.9-25.9,3.9-38.6,7.6c-8.1,2.3-16.7,1.8-25,2.7c-19.2,2.2-38.5,2.1-57.7,0.6
		c-16.3-1.3-32.3-4.9-47.6-10.9c-1.3-0.5-2.2-1.1-2.4-2.6c-2.1-13-5.2-25.8-6.4-38.8c-0.4-4.6,4.5-10.7,9.4-11.9
		c7.6-1.8,8.5-1.4,11.8,5.8c1.2,2.7,2.1,5.6,3.3,8.3c2.3,5.4,9,6.8,13.4,2.9c1.9-1.7,3.5-3.7,5.2-5.5c5.8-5.8,15.5-3.4,17.4,4.5
		c1.1,4.6,2.9,9,4.4,13.4c2.6,7.5,8.3,12.7,14.4,17.3c5,3.7,10.8,1,11.9-5.2c1.5-8.8,1.3-17.7,3.2-26.4c0.9-4.1,1.4-8.2,6.3-9.8
		c3-1,4.7-0.5,5.7,2.7c1,3.1,1.2,6.3,1.4,9.5c0.2,2.6,0.5,5.2,3.9,5.6c3.3,0.3,5.4-1.1,6.4-4.4c0.4-1.2,0.6-2.5,0.8-3.7
		c0.3-2.1,1.3-3.6,3.6-4.1c2.3-0.4,4.3-0.3,5.9,1.7c2.1,2.7,4.2,5.5,6.5,8.1c5.2,6.1,12,5.9,15.7-1.2c3-5.9,6.8-10.9,11.8-15.1
		c1.3-1.1,2.6-2.3,4.3-2.7c4-1.1,5.7-0.3,7.8,3.8c3.6,6.9,7,7.8,13.4,3.4C663.7,651.9,664,651.8,664.8,651.5z"/>
	<path id="XMLID_547_" fill="#E76B6A" d="M609.3,589.8c-14.5-3.2-27.8-8.5-36.5-21.4c-5.2-7.6-5.3-16.3,0-22.1c4.5-4.8,10-8,17.2-7
		c2.2,0.3,4.5,0.4,6.9-0.1c2.9-0.6,4.7,1.4,6.2,3.5c5.4,7.7,8,16.3,7.8,25.7C610.7,575.4,609.9,582.5,609.3,589.8z M600.9,580.8
		c2.2-2.7,2.9-4.9,2.1-7.5c-0.3-1.2-1.1-2.2-2.5-1.8c-1.2,0.3-1.5,1.4-1.3,2.5C599.7,576,600.2,578.1,600.9,580.8z M581.8,560.1
		c-1.1-1.4,0.2-4.3-2.8-4.6c-1.4-0.1-1.9,1.3-1.8,2.4c0.2,2,1.1,3.8,3.3,4.2C582.1,562.4,581.6,561.1,581.8,560.1z M600,556.2
		c0.4-2.2,0.8-4.4,1.1-6.5c0.1-1,0.2-2.1-0.8-2.9c-0.5-0.4-1.1-0.4-1.6-0.1c-1.2,0.8-1.2,2-0.9,3.1
		C598.3,551.9,599.4,553.9,600,556.2z M594.9,565.6c-0.6-1.5-0.6-3.5-2.9-3.9c-1.1-0.2-1.9,0.6-1.7,1.6c0.4,1.9,1.4,3.7,3.4,4.2
		C594.6,567.7,594.8,566.6,594.9,565.6z M589.4,551.1c0-2.2,0.1-3.9,0-5.6c-0.1-1.1-0.7-2-2-1.7c-1.1,0.2-1.4,1.2-1.1,2.1
		C586.8,547.6,587.1,549.6,589.4,551.1z M579.7,551.7c0.2-0.1,0.4-0.3,0.6-0.4c-0.6-1.2-1.1-2.5-1.9-3.5c-0.7-0.9-1.9-1.2-2.7-0.2
		c-0.7,0.8-0.3,1.9,0.6,2.4C577.4,550.7,578.6,551.1,579.7,551.7z"/>
	<path id="XMLID_538_" fill="#E76B6A" d="M519.3,566.6c0.1-10.9,8.4-19.6,17-20.2c2.9-0.2,5.7-0.4,8.5-1.3c2.8-0.9,4.8,1,6.6,2.9
		c7.3,7.8,10.8,17.3,11.7,27.8c0.4,5.2,0.4,10.4,1.3,15.5c0.2,1.2,0.3,2.3-1.6,2.1c-14.2-1.3-27.5-4.7-37.7-15.6
		C521.4,574,519.3,569.5,519.3,566.6z M554.9,586c1.4-3.2,2-5.9,0.1-8.5c-0.5-0.8-1.3-1.5-2.3-0.8c-0.8,0.5-1.4,1.2-1,2.3
		C552.6,581.2,553,583.6,554.9,586z M532.6,568.5c-1.3-1.1-0.4-4.2-3.2-4.6c-1.4-0.2-1.7,1.3-1.6,2.5c0.2,2.2,1.4,3.6,3.5,4
		C532.5,570.7,532.7,569.9,532.6,568.5z M549.5,561.7c0.2,0,0.3-0.1,0.5-0.1c0-2.4,0-4.8,0-7.2c0-1.1-0.3-2.3-1.6-2.1
		c-1.3,0.2-1.9,1.2-1.4,2.6C547.7,557.1,548.6,559.4,549.5,561.7z M546.4,572c-0.6-1.6-1.3-3.5-3.6-3.8c-0.9-0.1-1.3,0.9-1.2,1.7
		c0.4,2.2,2,3.3,3.9,3.8C546.4,574,546.4,573,546.4,572z M538.7,558.7c-0.3-2.7-0.4-4.6-0.8-6.3c-0.2-0.9-1-1.7-2-1.4
		c-1.1,0.3-1.3,1.3-1,2.3C535.4,555.1,536.5,556.7,538.7,558.7z M529.9,559.8c-0.7-1.2-1.2-2.2-1.9-3.1c-0.6-0.8-1.6-0.8-2.5-0.6
		c-0.6,0.1-1,0.5-1,1.2c0.1,1,0.8,1.7,1.7,1.9C527.2,559.6,528.2,560.3,529.9,559.8z M537.9,578.3c-0.7,0.1-1.1,0.5-1,1.2
		c0.2,1.1,1,1.5,2,1.5c0.6,0,1.3-0.2,1-1C539.6,579.1,538.9,578.4,537.9,578.3z"/>
	<path id="XMLID_537_" fill="#FBE0C4" d="M588.8,535.2c-4.4-0.2-7.4,0.4-10.5,1.7c-2.9,1.2-4.4-0.9-6.2-3.3c6.7,2.5,7.6,2.1,8.5-3.7
		c1.5,1.7,2.5,3.8,5.5,2.4C587.8,531.6,587.2,534,588.8,535.2z"/>
	<path id="XMLID_536_" fill="#FBE0C4" d="M519.4,543.7c0.3,0,0.7-0.1,1,0c5.5,1.2,6.1,0.8,6.8-4.9c1.7,1.5,3.2,3.3,5.6,1.3
		c0.6-0.5,0.8-0.3,2.2,2.6c-3.4,0.4-6.4,1.5-9.4,3.3C522.9,547.7,521.1,545.4,519.4,543.7L519.4,543.7z"/>
	<polygon id="XMLID_535_" fill="#FBE0C4" points="519.4,543.6 519.4,543.6 519.4,543.7 	"/>
	<path id="XMLID_534_" fill="#F8B1B1" d="M658.9,593.7c-6.3,1.5-11.3,4.3-16.3,7.1c-12.9,7.1-26.8,10.1-41.3,11.3
		c-18.3,1.6-36.6,2.3-54.9,1.8c-13.2-0.3-26.5-0.2-39.5-3.3c-6.6-1.5-13-3.9-19-7.1c-0.7-0.4-1.4-0.8-2.1-1.2
		c-0.8-0.6-2-1.3-1.4-2.4c0.7-1.4,1.9-0.2,2.7,0.2c7.1,3.5,14.5,5.9,22.2,7.6c5.5,1.2,11.2,1.5,16.8,1.7c18.7,0.9,37.4,0.8,56,0
		c14.7-0.6,29.5-1.4,43.8-5.4c7.2-2,14-5.3,20.9-8.1C650.4,594.4,654.2,593.1,658.9,593.7z"/>
	<path id="XMLID_533_" fill="#F8B1B1" d="M600.9,580.8c-0.7-2.7-1.3-4.7-1.7-6.8c-0.2-1.1,0.1-2.2,1.3-2.5c1.4-0.3,2.2,0.7,2.5,1.8
		C603.8,575.8,603.1,578.1,600.9,580.8z"/>
	<path id="XMLID_532_" fill="#F8B1B1" d="M581.8,560.1c-0.2,1,0.3,2.3-1.3,2c-2.2-0.4-3.1-2.2-3.3-4.2c-0.1-1.1,0.4-2.5,1.8-2.4
		C582,555.7,580.7,558.7,581.8,560.1z"/>
	<path id="XMLID_531_" fill="#F8B1B1" d="M600,556.2c-0.6-2.4-1.7-4.3-2.1-6.4c-0.2-1.1-0.2-2.3,0.9-3.1c0.5-0.3,1.1-0.3,1.6,0.1
		c0.9,0.8,0.9,1.8,0.8,2.9C600.8,551.9,600.4,554,600,556.2z"/>
	<path id="XMLID_530_" fill="#F8B1B1" d="M594.9,565.6c-0.1,1-0.3,2.1-1.2,1.9c-2-0.5-3-2.4-3.4-4.2c-0.2-1,0.6-1.8,1.7-1.6
		C594.3,562,594.3,564.1,594.9,565.6z"/>
	<path id="XMLID_529_" fill="#F8B1B1" d="M589.4,551.1c-2.3-1.4-2.6-3.4-3.2-5.2c-0.3-1,0.1-1.9,1.1-2.1c1.3-0.3,1.9,0.6,2,1.7
		C589.5,547.1,589.4,548.8,589.4,551.1z"/>
	<path id="XMLID_528_" fill="#F8B1B1" d="M579.7,551.7c-1.1-0.5-2.3-1-3.3-1.7c-0.8-0.5-1.2-1.6-0.6-2.4c0.8-1,2-0.7,2.7,0.2
		c0.8,1,1.3,2.3,1.9,3.5C580.2,551.4,579.9,551.5,579.7,551.7z"/>
	<path id="XMLID_527_" fill="#F8B1B1" d="M554.9,586c-1.9-2.5-2.3-4.9-3.2-7.1c-0.4-1.1,0.2-1.8,1-2.3c1-0.6,1.8,0.1,2.3,0.8
		C556.9,580.2,556.3,582.8,554.9,586z"/>
	<path id="XMLID_526_" fill="#F8B1B1" d="M532.6,568.5c0.1,1.4,0,2.1-1.2,1.9c-2.2-0.4-3.3-1.8-3.5-4c-0.1-1.2,0.2-2.7,1.6-2.5
		C532.2,564.3,531.3,567.4,532.6,568.5z"/>
	<path id="XMLID_525_" fill="#F8B1B1" d="M549.5,561.7c-0.9-2.3-1.8-4.6-2.6-6.9c-0.5-1.3,0.1-2.4,1.4-2.6c1.3-0.1,1.6,1.1,1.6,2.1
		c0,2.4,0,4.8,0,7.2C549.8,561.6,549.7,561.6,549.5,561.7z"/>
	<path id="XMLID_524_" fill="#F8B1B1" d="M546.4,572c0,0.9,0,1.9-0.9,1.7c-1.9-0.5-3.5-1.7-3.9-3.8c-0.1-0.9,0.3-1.9,1.2-1.7
		C545.1,568.5,545.8,570.4,546.4,572z"/>
	<path id="XMLID_523_" fill="#F8B1B1" d="M538.7,558.7c-2.1-2-3.2-3.6-3.8-5.5c-0.3-1-0.1-2,1-2.3c1.1-0.3,1.9,0.5,2,1.4
		C538.3,554.1,538.4,555.9,538.7,558.7z"/>
	<path id="XMLID_522_" fill="#F8B1B1" d="M529.9,559.8c-1.7,0.5-2.7-0.3-3.7-0.6c-0.9-0.2-1.6-0.9-1.7-1.9c-0.1-0.7,0.3-1.1,1-1.2
		c0.9-0.2,1.9-0.1,2.5,0.6C528.6,557.7,529.1,558.7,529.9,559.8z"/>
	<path id="XMLID_521_" fill="#F8B1B1" d="M537.9,578.3c1,0.1,1.6,0.8,2,1.6c0.3,0.8-0.4,1-1,1c-1,0-1.8-0.4-2-1.5
		C536.8,578.8,537.2,578.4,537.9,578.3z"/>
</g>
<g id="XMLID_520_">
	<path id="XMLID_756_" fill="#120F0E" d="M727.9,672.6c1.5-2.8,1.4-5.9,1.4-9c0.1-9-0.3-18.1,2.8-26.7c5.4-15.2,12.4-29.2,27.5-37.4
		c8.2-4.5,16.8-7.3,25.8-9.3c18.3-4.2,36.8-6.7,55.4-9.1c13.7-1.8,27.4-3.7,41.1-5.1c4.3-0.4,8.3,0.5,12.5,1
		c12.5,1.5,24.4,5.2,36,9.9c16.4,6.7,25,19.4,29.6,35.7c1.5,5.5,2,11.1,1.9,16.8c-0.2,10.4-0.8,20.7-1.1,31.1
		c-0.1,1.4-1.1,1.9-2,2.6c-11.7,8.9-25.3,13.3-39.2,17.8c-21.4,6.8-43.5,10.3-65.5,14.5c-12.2,2.3-24.3,5-36.5,7.2
		c-1.7,0.3-3.4,0.3-5.1,0.5c-6.3-0.1-12.7-0.1-19-0.1c-0.7,0-1.4-0.2-1.7,0.7c-1.2,0-2.3,0-3.5,0c-0.5-1.2-1.6-0.7-2.4-0.7
		c-9.2-0.4-17.6-3.1-24.8-8.9c-2.9-2.3-6-4.3-9-6.4c-9-6.3-17.2-13.5-24-22.1C727.9,674.5,727.9,673.6,727.9,672.6z M951,613
		c-3.5-12-12.6-18.1-23.3-22.7c-1.2-1.2-2.7-1.8-4.4-2.1c-16.3-7-33-11-50.9-6.9c-2.6-0.2-5,0.1-7.4,1.2c-0.7-0.3-1.5-0.4-2.2,0.1
		c-0.9,0-1.9,0-2.8,0c-0.2,0.3-0.4,0.5-0.6,0.8l0,0c-4.5-0.4-8.9,0.7-13.3,1.3c-11.1,1.5-22.1,3-33.2,4.5c-2.3,0.4-4.6,0.7-6.9,1.1
		c-1,0.2-1.9,0.4-2.9,0.7c-1.2-0.1-2.4,0.1-3.5,0.7c-6.7,1-13.3,2.7-19.8,4.4c-5.4,1.4-10.9,2.8-15.6,6.1c-0.9,0.2-1.8,0.3-2.4,1.2
		c-4.6,2.6-9.5,5.2-12.6,9.5c-9,12.5-15.8,26-15.4,42c0.1,5.6,0.2,11.3-0.6,16.9c-0.2,1.4-1.4,2.8,0.1,4.2c1.5,1.6,2.8,3.4,4.3,4.9
		c7.6,7.5,16.8,12.9,25.5,18.9c5.7,4,11.6,7.4,18.8,7.9c2.7,0.2,5.5,0.1,8.2,0.5c8.8,1.1,17.7,1.2,26.5-0.2
		c20-3.3,39.7-8.2,59.8-11.3c15.8-2.4,31.1-7,46.4-11.6c11.2-3.4,22.1-7.1,31.5-14.4c0.7-0.5,1.4-0.7,1.4-2
		c-0.6-12.4,1.2-24.9,0.5-37.3c-0.3-5.5-1.8-10.6-4.3-15.4C952.3,614.6,951.8,613.7,951,613z"/>
	<path id="XMLID_754_" fill="#A9796C" d="M791.6,713.5c0.3-0.9,1.1-0.7,1.7-0.7c6.3,0,12.7,0.1,19,0.1c0,0.2,0,0.4,0,0.5
		C805.5,713.5,798.6,713.5,791.6,713.5z"/>
	<path id="XMLID_751_" fill="#621D0C" d="M803.4,590.9c1-0.2,1.9-0.4,2.9-0.7c2.3,1.1,5,1.3,7.1,2.8c12.1,8.7,24.2,17.4,34.1,28.6
		c5.6,6.3,10.8,12.8,17.8,17.7c-7.9,1.6-15.7,3.5-23.6,4.8c-6.2,1-12.5,3.1-18.9,0.5c-1.2-0.5-3.1,0.1-3.4,2.1
		c-0.3,2.1,1.3,2.5,2.8,2.8c1.1,0.2,2.3,0.2,3.4,0.2c10.7,0.2,21-2.4,31.3-4.6c4.4-0.9,9.1-1.1,13.1-3.3c4.1,0.6,8.1,1.3,11.3-2.3
		c11-2,21.6-5.6,32.1-9.4c3.9-1.4,8.1-2.3,11.6-4.9c0.4-0.1,0.7-0.1,1.1-0.2c0.4,0.4,0.6,0.2,0.8-0.2c1.6-0.7,3.2-1.4,4.8-2.1
		c1.3,0.3,2.5-0.4,3.6-0.8c5.7-2.1,11.4-4.1,17-6.2c2.5,4.8,4,10,4.3,15.4c0.6,12.5-1.2,24.9-0.5,37.3c0.1,1.3-0.7,1.5-1.4,2
		c-9.4,7.2-20.4,11-31.5,14.4c-15.3,4.6-30.6,9.2-46.4,11.6c-20.1,3.1-39.8,8-59.8,11.3c-8.7,1.5-17.6,1.4-26.5,0.2
		c-2.7-0.4-5.5-0.3-8.2-0.5c-7.3-0.5-13.1-3.9-18.8-7.9c-8.7-6-17.9-11.4-25.5-18.9c-1.6-1.5-2.8-3.4-4.3-4.9
		c-1.4-1.5-0.3-2.9-0.1-4.2c0.8-5.6,0.8-11.3,0.6-16.9c-0.3-16,6.4-29.5,15.4-42c3.1-4.3,8-6.9,12.6-9.5c4.7,2,9.2,4,13.4,7
		c9.7,7,19.6,13.7,29.6,20.4c9,6.1,18.5,11.1,29.5,12.6c4.9,0.7,8.3-2.8,7.2-7.7c-0.4-2.1-1.4-3.9-2.5-5.6
		c-3.3-5.1-7.4-9.4-12.1-13.2c-6-4.8-12-9.7-17.2-15.5C807.3,598.2,804.5,595.1,803.4,590.9z M805.5,651.2c0.1,0.1,0.2,0.2,0.4,0.3
		c0-0.1,0-0.2,0-0.2C805.7,651.2,805.6,651.2,805.5,651.2c-2.1-1.9-4.7-2.7-7.3-3.5c-7.3-2.3-14.9-4.1-21.8-7.6
		c-9.8-5.1-17.3-12.4-22.1-22.5c-0.5-1.1-0.9-2.8-2.6-2c-1.5,0.7-0.5,2.1-0.1,3.1c2.7,6.1,5.8,12,10.9,16.6
		C774.7,646.2,789.3,650.9,805.5,651.2z"/>
	<path id="XMLID_750_" fill="#631F0E" d="M813.1,589.2c11.1-1.5,22.1-3.1,33.2-4.5c4.4-0.6,8.8-1.8,13.3-1.3
		c0.2,1.3,0.1,2.6,0.5,3.7c3.1,8.3,5.2,16.9,11.6,23.6c5.4,5.6,8.5,12.1,7.9,20.2c-0.5,6.6-4.3,8.9-10.3,5.9
		c-5.7-2.9-10.1-7.2-14.1-12.1c-6-7.3-12.6-14.1-20.2-19.8C827.8,599.5,821.2,593.3,813.1,589.2z"/>
	<path id="XMLID_749_" fill="#631F0E" d="M764.5,602.1c4.7-3.3,10.2-4.7,15.6-6.1c6.5-1.7,13.1-3.4,19.8-4.4c0.2,2.6,1.6,4.8,3,6.8
		c4.9,6.9,11,12.7,17.6,18c3.8,3,7.6,6,10.9,9.6c2.3,2.6,4.4,5.3,6,8.4c0.7,1.4,1.2,3,0.3,4.3c-0.9,1.4-2.6,0.7-3.8,0.5
		c-3.6-0.7-7.1-1.6-10.6-3c-10-4-18.5-10.5-27.6-16.3C785.6,613.5,776.4,605.5,764.5,602.1z"/>
	<path id="XMLID_748_" fill="#631F0E" d="M872.5,581.3c17.8-4.1,34.5-0.1,50.9,6.9c0.3,4.4,1.7,8.5,3.1,12.6
		c1.9,5.4,2.8,10.8,2.4,16.6c-0.1,2.1-1,3.1-3.1,3.4c-5.5,0.9-10.4-0.5-14.9-3.7c-8.5-6.1-16-13.1-22.4-21.4
		C884,589.9,879,584.8,872.5,581.3z"/>
	<path id="XMLID_747_" fill="#631F0E" d="M863,582.6c0.7-0.5,1.4-0.4,2.2-0.1c0.8,0.2,1.6,0.2,2.3,0.5c7.1,2.3,12.1,7.2,16.6,13
		c9.2,11.8,19.3,22.5,33.2,28.8c-11.3,3.7-22.5,7.7-34.1,10.4c0.2-3.3,0.7-6.6,0.4-10c-0.8-7.3-5-12.7-9.5-18
		C868,600.1,865.1,591.5,863,582.6z"/>
	<path id="XMLID_746_" fill="#F4EFED" d="M863,582.6c2.1,8.9,5,17.4,11,24.6c4.5,5.3,8.7,10.7,9.5,18c0.4,3.4-0.1,6.7-0.4,10
		c-0.7,1.5-1.3,2.9-2,4.4c-3.2,3.6-7.2,3-11.3,2.3c-1.3-1.2-3-1.9-4.7-2.5c-7-4.9-12.2-11.4-17.8-17.7c-10-11.2-22-19.9-34.1-28.6
		c-2.1-1.5-4.8-1.7-7.1-2.8c2.3-0.4,4.6-0.7,6.9-1.1c8.1,4.1,14.7,10.3,21.8,15.7c7.6,5.7,14.2,12.5,20.2,19.8
		c4,4.8,8.4,9.2,14.1,12.1c6,3,9.8,0.7,10.3-5.9c0.7-8.1-2.5-14.6-7.9-20.2c-6.4-6.6-8.6-15.3-11.6-23.6c-0.4-1.2-0.4-2.5-0.5-3.7
		l0,0c0.2-0.3,0.4-0.5,0.6-0.7C861.1,582.6,862,582.6,863,582.6z"/>
	<path id="XMLID_745_" fill="#F4EFED" d="M764.5,602.1c11.9,3.4,21.1,11.4,31.2,17.8c9,5.7,17.5,12.2,27.6,16.3
		c3.4,1.4,7,2.3,10.6,3c1.3,0.2,3,0.9,3.8-0.5c0.8-1.3,0.4-2.9-0.3-4.3c-1.6-3.1-3.6-5.9-6-8.4c-3.3-3.6-7.1-6.6-10.9-9.6
		c-6.6-5.3-12.7-11-17.6-18c-1.4-2.1-2.8-4.2-3-6.8c1.1-0.6,2.2-0.8,3.5-0.7c1.1,4.2,3.9,7.3,6.6,10.3c5.2,5.8,11.2,10.7,17.2,15.5
		c4.7,3.8,8.8,8.1,12.1,13.2c1.1,1.8,2.1,3.6,2.5,5.6c1.1,4.9-2.3,8.3-7.2,7.7c-11-1.5-20.5-6.5-29.5-12.6
		c-9.9-6.7-19.8-13.5-29.6-20.4c-4.2-3-8.7-5-13.4-7C762.7,602.4,763.6,602.3,764.5,602.1z"/>
	<path id="XMLID_744_" fill="#F4EFED" d="M917.2,624.8c-13.9-6.3-24-17-33.2-28.8c-4.5-5.7-9.5-10.6-16.6-13
		c-0.8-0.2-1.6-0.3-2.3-0.5c2.3-1.2,4.8-1.4,7.4-1.2c6.5,3.5,11.5,8.6,16,14.4c6.4,8.2,13.9,15.3,22.4,21.4
		c4.5,3.3,9.4,4.6,14.9,3.7c2.1-0.3,2.9-1.3,3.1-3.4c0.4-5.7-0.6-11.2-2.4-16.6c-1.4-4.1-2.8-8.3-3.1-12.6c1.6,0.3,3.1,0.9,4.4,2.1
		c2.2,9.3,6.4,18.3,5.2,28.3c-0.5,1.4-0.9,2.8-1.4,4.2c-1.6,0.7-3.2,1.4-4.8,2.1c-0.3,0.1-0.5,0.1-0.8,0.2c-0.4,0.1-0.7,0.1-1.1,0.2
		C922.3,625.1,919.8,625,917.2,624.8z"/>
	<path id="XMLID_743_" fill="#631F0E" d="M932.9,618.6c1.2-10-3-19-5.2-28.3c10.6,4.6,19.8,10.7,23.3,22.7
		C945,614.9,939,616.7,932.9,618.6z"/>
	<path id="XMLID_742_" fill="#A9796C" d="M932.9,618.6c6-1.9,12-3.7,18-5.6c0.8,0.7,1.3,1.6,1.2,2.8c-5.7,2.1-11.4,4.2-17,6.2
		c-1.2,0.4-2.3,1.1-3.6,0.8C932,621.4,932.5,620,932.9,618.6z"/>
	<path id="XMLID_741_" fill="#631F0E" d="M860.1,582.6c-0.2,0.2-0.4,0.5-0.6,0.7C859.8,583.1,860,582.9,860.1,582.6z"/>
	<path id="XMLID_740_" fill="#A9796C" d="M805.5,651.2c-16.2-0.3-30.7-5-43-16c-5.1-4.6-8.2-10.5-10.9-16.6
		c-0.4-0.9-1.4-2.4,0.1-3.1c1.7-0.8,2.1,0.9,2.6,2c4.8,10,12.3,17.4,22.1,22.5c6.9,3.6,14.4,5.3,21.8,7.6
		C800.8,648.5,803.4,649.2,805.5,651.2L805.5,651.2z"/>
	<path id="XMLID_739_" fill="#A9796C" d="M865.3,639.4c1.7,0.6,3.3,1.3,4.7,2.5c-4.1,2.3-8.7,2.4-13.1,3.3
		c-10.3,2.2-20.6,4.7-31.3,4.6c-1.2,0-2.3,0-3.4-0.2c-1.5-0.3-3.1-0.7-2.8-2.8c0.3-2,2.3-2.6,3.4-2.1c6.4,2.5,12.7,0.5,18.9-0.5
		C849.5,642.8,857.4,641,865.3,639.4z"/>
	<path id="XMLID_738_" fill="#A9796C" d="M917.2,624.8c2.5,0.1,5.1,0.3,7.6,0.4c-3.4,2.6-7.7,3.5-11.6,4.9
		c-10.5,3.8-21,7.4-32.1,9.4c0.7-1.5,1.3-2.9,2-4.4C894.8,632.6,905.9,628.5,917.2,624.8z"/>
	<path id="XMLID_737_" fill="#A9796C" d="M925.9,625.1c0.3-0.1,0.5-0.1,0.8-0.2C926.5,625.3,926.3,625.5,925.9,625.1z"/>
	<path id="XMLID_736_" fill="#A9796C" d="M805.5,651.2c0.1,0,0.2,0.1,0.3,0.1c0,0,0,0.2,0,0.2C805.7,651.4,805.6,651.3,805.5,651.2
		L805.5,651.2z"/>
</g>
</svg>
